<svg xmlns="http://www.w3.org/2000/svg" width="896" height="288" viewBox="0 0 896 288" fill="none">
  <style>
    * {
      transform-origin: center;
      transform-box: fill-box;
    }

    .animate-fade-in {
      animation: fade-in 0.64s cubic-bezier(0, 0, 0.2, 1) forwards;
    }

    .animate-fade-in-bottom {
      animation: fade-in-bottom 0.64s cubic-bezier(0, 0, 0.2, 1) forwards;
    }

    .title {
      opacity: 0;
      animation-delay: 0.4s;
    }

    .description {
      opacity: 0;
      animation-delay: 0.7s;
    }

    @keyframes fade-in {
      from {
        opacity: 0;
      }
      to {
        opacity: 1;
      }
    }

    @keyframes fade-in-bottom {
      from {
        opacity: 0;
        transform: translate3d(0, -20px, 0);
      }
      to {
        opacity: 1;
        transform: translate3d(0, 0, 0);
      }
    }
  </style>
  <g clip-path="url(#clip0_1_2)">
    <!-- #region background  -->
    <rect width="896" height="288" fill="url(#paint0_linear_1_2)"/>
    <mask id="mask0_1_2" style="mask-type: alpha" maskUnits="userSpaceOnUse" x="0" y="0" width="896" height="288">
      <rect width="896" height="288" fill="url(#paint1_linear_1_2)"/>
    </mask>
    <g mask="url(#mask0_1_2)">
      <path d="M32.5001 0L32.5001 288M64.5001 0L64.5001 288M96.5001 0L96.5001 288M128.5 0L128.5 288M160.5 0L160.5 288M192.5 0L192.5 288M224.5 0L224.5 288M256.5 0V288M288.5 0V288M320.5 0V288M352.5 0V288M384.5 0V288M416.5 0V288M448.5 0V288M480.5 0V288M512.5 0V288M544.5 0V288M576.5 0V288M608.5 0V288M640.5 0V288M672.5 0V288M704.5 0V288M736.5 0V288M768.5 0V288M800.5 0V288M832.5 0V288M864.5 0V288M0 31.5H896M0 63.5H896M0 95.5H896M0 127.5H896M0 159.5H896M0 191.5H896M0 223.5H896M0 255.5H896" stroke="black" stroke-opacity="0.07" stroke-dasharray="5 5"/>
    </g>
    <!-- #endregion -->

    <!-- #region title -->
    <g class="animate-fade-in-bottom title">
      <path d="M0.837313 13.624C0.837313 11.704 1.10931 10.04 1.65331 8.632C2.19731 7.192 2.96531 6.008 3.95731 5.08C4.94931 4.12 6.13331 3.4 7.50931 2.92C8.91731 2.44 10.4853 2.2 12.2133 2.2C15.6053 2.2 18.2933 3.144 20.2773 5.032C22.2933 6.92 23.3013 9.784 23.3013 13.624C23.3013 17.464 22.2933 20.344 20.2773 22.264C18.2933 24.184 15.6053 25.144 12.2133 25.144C10.4853 25.144 8.91731 24.904 7.50931 24.424C6.13331 23.944 4.94931 23.224 3.95731 22.264C2.96531 21.304 2.19731 20.104 1.65331 18.664C1.10931 17.224 0.837313 15.544 0.837313 13.624ZM16.2453 13.624C16.2453 12.056 16.1813 10.728 16.0533 9.64C15.9573 8.52 15.7493 7.624 15.4293 6.952C15.1413 6.248 14.7253 5.752 14.1813 5.464C13.6693 5.144 13.0133 4.984 12.2133 4.984C11.3813 4.984 10.7093 5.144 10.1973 5.464C9.68531 5.752 9.28531 6.248 8.99731 6.952C8.70931 7.624 8.50131 8.52 8.37331 9.64C8.27731 10.728 8.22931 12.056 8.22931 13.624C8.22931 15.224 8.27731 16.584 8.37331 17.704C8.50131 18.824 8.70931 19.736 8.99731 20.44C9.28531 21.112 9.68531 21.608 10.1973 21.928C10.7093 22.216 11.3813 22.36 12.2133 22.36C13.0133 22.36 13.6693 22.216 14.1813 21.928C14.7253 21.608 15.1413 21.112 15.4293 20.44C15.7493 19.736 15.9573 18.824 16.0533 17.704C16.1813 16.584 16.2453 15.224 16.2453 13.624ZM27.1893 4.888C27.1893 4.088 27.0293 3.56 26.7093 3.304C26.3893 3.048 25.9573 2.92 25.4133 2.92H24.5013V1.144H34.7733V14.296H39.7653V16.696H34.7733V31.528H29.0133C28.3093 31.528 27.8293 31.384 27.5733 31.096C27.3173 30.776 27.1893 30.312 27.1893 29.704V4.888ZM14.4213 40.84H35.4933V43.288H8.32531C7.49331 43.288 6.96531 43.064 6.74131 42.616C6.51731 42.168 6.40531 41.64 6.40531 41.032V32.344C6.40531 31.608 6.24531 31.096 5.92531 30.808C5.60531 30.52 5.14131 30.376 4.53331 30.376H3.66931V28.744H14.4213V40.84ZM47.2826 35.224C47.2826 33.656 47.6346 32.296 48.3386 31.144C49.0426 29.96 50.0346 28.968 51.3146 28.168C52.5946 27.368 54.1306 26.776 55.9226 26.392C57.7466 25.976 59.7626 25.768 61.9706 25.768C64.2106 25.768 66.2426 25.976 68.0666 26.392C69.8906 26.776 71.4426 27.368 72.7226 28.168C74.0026 28.968 74.9946 29.96 75.6986 31.144C76.4026 32.296 76.7546 33.656 76.7546 35.224C76.7546 36.824 76.4026 38.2 75.6986 39.352C74.9946 40.536 74.0026 41.512 72.7226 42.28C71.4426 43.08 69.8906 43.672 68.0666 44.056C66.2426 44.44 64.2106 44.632 61.9706 44.632C59.7626 44.632 57.7466 44.44 55.9226 44.056C54.1306 43.672 52.5946 43.08 51.3146 42.28C50.0346 41.512 49.0426 40.536 48.3386 39.352C47.6346 38.2 47.2826 36.824 47.2826 35.224ZM59.1866 13.24H68.9786V9.592H59.1866V6.76H68.9786V4.888C68.9786 4.088 68.8186 3.56 68.4986 3.304C68.1786 3.048 67.7306 2.92 67.1546 2.92H66.1946V1.144H76.5146V24.616H70.8026C70.0666 24.616 69.5706 24.472 69.3146 24.184C69.0906 23.896 68.9786 23.432 68.9786 22.792V15.976H59.1866V13.24ZM43.5386 5.464C43.4746 4.824 43.2986 4.392 43.0106 4.168C42.7546 3.944 42.3866 3.832 41.9066 3.832H40.9466V2.152H51.2666V19.672H64.7546V22.456H45.8906C45.1226 22.456 44.5306 22.248 44.1146 21.832C43.7306 21.384 43.5386 20.792 43.5386 20.056V5.464ZM54.9146 35.224C54.9146 36.536 55.0746 37.64 55.3946 38.536C55.7466 39.432 56.2266 40.152 56.8346 40.696C57.4746 41.24 58.2266 41.64 59.0906 41.896C59.9546 42.152 60.9146 42.28 61.9706 42.28C62.9946 42.28 63.9386 42.152 64.8026 41.896C65.6986 41.64 66.4666 41.24 67.1066 40.696C67.7786 40.152 68.2906 39.432 68.6426 38.536C69.0266 37.64 69.2186 36.536 69.2186 35.224C69.2186 33.88 69.0266 32.76 68.6426 31.864C68.2906 30.936 67.7786 30.2 67.1066 29.656C66.4666 29.08 65.6986 28.68 64.8026 28.456C63.9386 28.2 62.9946 28.072 61.9706 28.072C60.9146 28.072 59.9546 28.2 59.0906 28.456C58.2266 28.68 57.4746 29.08 56.8346 29.656C56.2266 30.2 55.7466 30.936 55.3946 31.864C55.0746 32.76 54.9146 33.88 54.9146 35.224ZM104.672 25.48C104.672 28.072 104.432 30.296 103.952 32.152C103.472 33.976 102.784 35.48 101.888 36.664C100.992 37.816 99.8878 38.664 98.5758 39.208C97.2958 39.752 95.8398 40.024 94.2078 40.024C92.6078 40.024 91.1518 39.752 89.8398 39.208C88.5278 38.664 87.4078 37.816 86.4798 36.664C85.5518 35.48 84.8318 33.976 84.3198 32.152C83.8078 30.296 83.5518 28.072 83.5518 25.48C83.5518 22.888 83.8078 20.68 84.3198 18.856C84.8318 17 85.5518 15.496 86.4798 14.344C87.4078 13.16 88.5278 12.296 89.8398 11.752C91.1518 11.208 92.6078 10.936 94.2078 10.936C95.8398 10.936 97.2958 11.208 98.5758 11.752C99.8878 12.296 100.992 13.16 101.888 14.344C102.784 15.496 103.472 17 103.952 18.856C104.432 20.68 104.672 22.888 104.672 25.48ZM121.52 22.024H116.528V43.432H110.72C109.696 43.432 109.184 42.888 109.184 41.8V4.6C109.12 3.96 108.912 3.528 108.56 3.304C108.208 3.08 107.808 2.968 107.36 2.968H106.4V1.192H116.528V19.336H121.52V22.024ZM97.5678 25.48C97.5678 23.4 97.5358 21.624 97.4718 20.152C97.4398 18.648 97.3118 17.432 97.0878 16.504C96.8638 15.544 96.5278 14.84 96.0798 14.392C95.6318 13.944 95.0078 13.72 94.2078 13.72C93.4398 13.72 92.8318 13.944 92.3838 14.392C91.9358 14.84 91.5998 15.544 91.3758 16.504C91.1518 17.432 91.0078 18.648 90.9438 20.152C90.9118 21.624 90.8958 23.4 90.8958 25.48C90.8958 27.592 90.9118 29.384 90.9438 30.856C91.0078 32.328 91.1518 33.544 91.3758 34.504C91.5998 35.432 91.9358 36.12 92.3838 36.568C92.8318 36.984 93.4398 37.192 94.2078 37.192C95.0078 37.192 95.6318 36.984 96.0798 36.568C96.5278 36.12 96.8638 35.432 97.0878 34.504C97.3118 33.544 97.4398 32.328 97.4718 30.856C97.5358 29.384 97.5678 27.592 97.5678 25.48ZM82.0158 9.208V6.424H90.8958V4.216C90.8958 3.48 90.7358 2.984 90.4158 2.728C90.0958 2.44 89.6638 2.296 89.1198 2.296H88.1598V0.519998H98.8158V6.424H106.16V9.208H82.0158ZM121.261 37.96C122.829 36.616 124.093 35.08 125.053 33.352C126.045 31.624 126.797 29.736 127.309 27.688C127.821 25.608 128.157 23.4 128.317 21.064C128.509 18.696 128.605 16.2 128.605 13.576V5.608C128.605 4.84 128.477 4.328 128.221 4.072C127.965 3.784 127.533 3.64 126.925 3.64H126.061V1.96H135.901V11.56C135.901 14.952 135.981 17.928 136.141 20.488C136.301 23.048 136.621 25.336 137.101 27.352C137.613 29.336 138.317 31.112 139.213 32.68C140.141 34.248 141.373 35.72 142.909 37.096L141.133 38.872C140.269 38.424 139.373 37.736 138.445 36.808C137.517 35.848 136.637 34.808 135.805 33.688C134.973 32.568 134.237 31.448 133.597 30.328C132.957 29.176 132.493 28.184 132.205 27.352C131.789 28.696 131.229 30.008 130.525 31.288C129.821 32.568 129.037 33.752 128.173 34.84C127.341 35.896 126.445 36.856 125.485 37.72C124.557 38.584 123.661 39.272 122.797 39.784L121.261 37.96ZM138.157 17.176H143.101V4.888C143.101 4.152 143.037 3.608 142.909 3.256C142.781 2.904 142.349 2.728 141.613 2.728H141.037V0.951998H149.533V43.288H144.397C143.917 43.288 143.581 43.144 143.389 42.856C143.197 42.568 143.101 42.28 143.101 41.992V19.96H138.157V17.176ZM152.797 4.888C152.797 4.12 152.717 3.576 152.557 3.256C152.429 2.904 151.981 2.728 151.213 2.728H150.781V0.951998H159.181V43.288H154.093C153.645 43.288 153.309 43.16 153.085 42.904C152.893 42.68 152.797 42.376 152.797 41.992V4.888ZM200.538 37.192V39.976H164.01V37.192H170.49V22.6C169.146 21.576 168.106 20.328 167.37 18.856C166.666 17.384 166.314 15.624 166.314 13.576C166.314 11.528 166.714 9.736 167.514 8.2C168.314 6.664 169.418 5.4 170.826 4.408C172.234 3.416 173.914 2.68 175.866 2.2C177.818 1.688 179.946 1.432 182.25 1.432C184.554 1.432 186.682 1.688 188.634 2.2C190.586 2.68 192.266 3.416 193.674 4.408C195.082 5.4 196.17 6.664 196.938 8.2C197.738 9.736 198.138 11.528 198.138 13.576C198.138 15.592 197.77 17.336 197.034 18.808C196.33 20.28 195.306 21.528 193.962 22.552V37.192H200.538ZM182.25 23.032C184.906 23.032 186.954 22.248 188.394 20.68C189.866 19.112 190.602 16.744 190.602 13.576C190.602 10.472 189.866 8.136 188.394 6.568C186.954 5 184.906 4.216 182.25 4.216C179.626 4.216 177.578 5 176.106 6.568C174.634 8.136 173.898 10.472 173.898 13.576C173.898 16.744 174.634 19.112 176.106 20.68C177.578 22.248 179.626 23.032 182.25 23.032ZM182.25 25.816C181.674 25.816 181.082 25.816 180.474 25.816C179.898 25.784 179.37 25.736 178.89 25.672V37.192H185.706V25.672C185.13 25.736 184.57 25.784 184.026 25.816C183.482 25.816 182.89 25.816 182.25 25.816ZM211.025 34.168C211.089 35.064 211.057 35.784 210.929 36.328C210.833 36.872 210.641 37.464 210.353 38.104C209.873 39.096 209.185 39.992 208.289 40.792C207.425 41.592 206.433 42.12 205.313 42.376L204.737 41.08C205.665 40.696 206.353 40.248 206.801 39.736C207.281 39.224 207.521 38.808 207.521 38.488C207.521 38.36 207.505 38.216 207.473 38.056C207.441 37.928 207.265 37.864 206.945 37.864C205.985 37.928 205.169 37.624 204.497 36.952C203.825 36.28 203.489 35.416 203.489 34.36C203.489 33.24 203.809 32.312 204.449 31.576C205.121 30.808 206.017 30.424 207.137 30.424C208.225 30.424 209.121 30.76 209.825 31.432C210.529 32.104 210.929 33.016 211.025 34.168ZM354.2 28.648C354.2 28.072 354.024 27.656 353.672 27.4C353.352 27.144 352.968 27.016 352.52 27.016H351.32V25.288H361.736V31.624H376.76V28.408C376.76 27.352 376.168 26.824 374.984 26.824H373.976V25.048H384.296V43.288H356.408C355.64 43.288 355.08 43.048 354.728 42.568C354.376 42.088 354.2 41.512 354.2 40.84V28.648ZM349.4 11.56C349.4 9.768 349.672 8.248 350.216 7C350.76 5.752 351.528 4.744 352.52 3.976C353.512 3.176 354.696 2.6 356.072 2.248C357.48 1.896 359.048 1.72 360.776 1.72C362.472 1.72 363.992 1.896 365.336 2.248C366.712 2.6 367.88 3.176 368.84 3.976C369.8 4.744 370.536 5.752 371.048 7C371.592 8.248 371.864 9.768 371.864 11.56C371.864 13.352 371.592 14.888 371.048 16.168C370.536 17.416 369.8 18.44 368.84 19.24C367.88 20.04 366.712 20.632 365.336 21.016C363.992 21.368 362.472 21.544 360.776 21.544C359.048 21.544 357.48 21.368 356.072 21.016C354.696 20.632 353.512 20.04 352.52 19.24C351.528 18.44 350.76 17.416 350.216 16.168C349.672 14.888 349.4 13.352 349.4 11.56ZM376.76 4.888C376.76 4.088 376.6 3.56 376.28 3.304C375.96 3.048 375.512 2.92 374.936 2.92H373.976V1.144H384.296V22.648H378.584C377.848 22.648 377.352 22.504 377.096 22.216C376.872 21.928 376.76 21.464 376.76 20.824V4.888ZM364.808 11.56C364.808 9.32 364.536 7.576 363.992 6.328C363.48 5.08 362.408 4.456 360.776 4.456C359.944 4.456 359.272 4.616 358.76 4.936C358.248 5.256 357.848 5.72 357.56 6.328C357.272 6.936 357.064 7.688 356.936 8.584C356.84 9.448 356.792 10.44 356.792 11.56C356.792 12.68 356.84 13.688 356.936 14.584C357.064 15.448 357.272 16.2 357.56 16.84C357.848 17.448 358.248 17.912 358.76 18.232C359.272 18.552 359.944 18.712 360.776 18.712C362.408 18.712 363.48 18.088 363.992 16.84C364.536 15.56 364.808 13.8 364.808 11.56ZM376.76 40.36V34.36H361.736V40.36H376.76ZM413.797 38.776H395.413C394.581 38.776 393.989 38.552 393.637 38.104C393.285 37.656 393.109 37.08 393.109 36.376V6.04C393.109 5.304 392.933 4.808 392.581 4.552C392.229 4.264 391.797 4.12 391.285 4.12H390.373V2.44H400.645V35.992H413.797V38.776ZM424.549 43.48H418.789C417.733 43.48 417.205 42.936 417.205 41.848V5.656C417.205 4.728 417.077 4.056 416.821 3.64C416.565 3.224 416.005 3.016 415.141 3.016H414.421V1.192H424.549V43.48ZM453.906 38.776H435.426C434.658 38.776 434.066 38.552 433.65 38.104C433.266 37.656 433.074 37.08 433.074 36.376V6.04C433.074 5.304 432.93 4.808 432.642 4.552C432.386 4.264 431.986 4.12 431.442 4.12H430.482V2.44H452.322V5.224H440.754V35.992H453.906V38.776ZM469.698 22.024H464.658V43.432H458.898C458.418 43.432 458.034 43.288 457.746 43C457.458 42.712 457.314 42.312 457.314 41.8V4.6C457.25 3.96 457.058 3.528 456.738 3.304C456.45 3.08 456.05 2.968 455.538 2.968H454.338V1.192H464.658V19.336H469.698V22.024ZM472.224 34.168C472.224 33.144 472.576 32.264 473.28 31.528C474.016 30.792 474.896 30.424 475.92 30.424C476.944 30.424 477.824 30.792 478.56 31.528C479.296 32.264 479.664 33.144 479.664 34.168C479.664 35.192 479.296 36.072 478.56 36.808C477.824 37.544 476.944 37.912 475.92 37.912C474.896 37.912 474.016 37.544 473.28 36.808C472.576 36.072 472.224 35.192 472.224 34.168Z" fill="black"/>
<path d="M234.079 35.224C234.079 33.656 234.431 32.296 235.135 31.144C235.839 29.96 236.831 28.968 238.111 28.168C239.391 27.368 240.927 26.776 242.719 26.392C244.543 25.976 246.559 25.768 248.767 25.768C251.007 25.768 253.039 25.976 254.863 26.392C256.687 26.776 258.239 27.368 259.519 28.168C260.799 28.968 261.791 29.96 262.495 31.144C263.199 32.296 263.551 33.656 263.551 35.224C263.551 36.824 263.199 38.2 262.495 39.352C261.791 40.536 260.799 41.512 259.519 42.28C258.239 43.08 256.687 43.672 254.863 44.056C253.039 44.44 251.007 44.632 248.767 44.632C246.559 44.632 244.543 44.44 242.719 44.056C240.927 43.672 239.391 43.08 238.111 42.28C236.831 41.512 235.839 40.536 235.135 39.352C234.431 38.2 234.079 36.824 234.079 35.224ZM250.495 5.416H243.871V8.056C243.871 9.976 244.079 11.624 244.495 13C244.943 14.344 245.567 15.528 246.367 16.552C247.199 17.544 248.175 18.408 249.295 19.144C250.447 19.88 251.727 20.568 253.135 21.208L251.839 23.512C249.023 22.776 246.671 21.768 244.783 20.488C242.927 19.208 241.391 17.688 240.175 15.928C238.767 18.104 237.151 19.944 235.327 21.448C233.535 22.92 231.343 24.072 228.751 24.904L227.407 22.6C228.559 22.056 229.663 21.4 230.719 20.632C231.807 19.832 232.751 18.856 233.551 17.704C234.383 16.552 235.039 15.192 235.519 13.624C235.999 12.056 236.239 10.184 236.239 8.008V5.416H228.943V2.68H250.495V5.416ZM248.191 10.888H255.775V4.84C255.775 4.072 255.615 3.56 255.295 3.304C254.975 3.016 254.527 2.872 253.951 2.872H252.991V1.096H263.311V24.952H257.599C256.863 24.952 256.367 24.808 256.111 24.52C255.887 24.232 255.775 23.768 255.775 23.128V13.624H248.191V10.888ZM241.711 35.224C241.711 37.816 242.351 39.64 243.631 40.696C244.943 41.752 246.655 42.28 248.767 42.28C249.791 42.28 250.735 42.152 251.599 41.896C252.495 41.64 253.263 41.24 253.903 40.696C254.575 40.152 255.087 39.432 255.439 38.536C255.823 37.64 256.015 36.536 256.015 35.224C256.015 33.88 255.823 32.76 255.439 31.864C255.087 30.936 254.575 30.2 253.903 29.656C253.263 29.08 252.495 28.68 251.599 28.456C250.735 28.2 249.791 28.072 248.767 28.072C247.711 28.072 246.751 28.2 245.887 28.456C245.023 28.68 244.271 29.08 243.631 29.656C243.023 30.2 242.543 30.936 242.191 31.864C241.871 32.76 241.711 33.88 241.711 35.224ZM269.773 17.944C269.773 15.192 270.717 13.016 272.605 11.416C274.493 9.816 277.213 9.016 280.765 9.016C282.813 9.016 284.573 9.304 286.045 9.88C287.549 10.456 288.733 11.272 289.597 12.328H296.557V4.84C296.557 4.072 296.397 3.56 296.077 3.304C295.757 3.016 295.309 2.872 294.733 2.872H293.773V1.096H304.093V31.864H298.381C297.645 31.864 297.149 31.72 296.893 31.432C296.669 31.112 296.557 30.632 296.557 29.992V23.704H289.597C288.701 24.824 287.517 25.704 286.045 26.344C284.573 26.984 282.813 27.304 280.765 27.304C279.005 27.304 277.437 27.08 276.061 26.632C274.717 26.152 273.565 25.496 272.605 24.664C271.677 23.832 270.973 22.84 270.493 21.688C270.013 20.536 269.773 19.288 269.773 17.944ZM282.781 40.312H304.813V43.288H276.685C275.853 43.288 275.325 43.064 275.101 42.616C274.877 42.168 274.765 41.64 274.765 41.032V33.64C274.765 32.808 274.605 32.264 274.285 32.008C273.965 31.752 273.501 31.624 272.893 31.624H272.029V29.848H282.781V40.312ZM268.573 7.432V4.696H277.309V3.4C277.309 2.792 277.149 2.376 276.829 2.152C276.509 1.928 276.077 1.816 275.533 1.816H274.717V0.0399981H284.893V4.696H292.717V7.432H268.573ZM280.765 11.848C279.645 11.848 278.749 12.296 278.077 13.192C277.405 14.056 277.069 15.64 277.069 17.944C277.069 20.248 277.405 21.912 278.077 22.936C278.749 23.96 279.645 24.472 280.765 24.472C281.853 24.472 282.733 23.96 283.405 22.936C284.077 21.912 284.413 20.248 284.413 17.944C284.413 15.64 284.077 14.056 283.405 13.192C282.733 12.296 281.853 11.848 280.765 11.848ZM291.517 17.944C291.517 19.032 291.373 20.024 291.085 20.92H296.557V15.112H291.133C291.389 15.976 291.517 16.92 291.517 17.944ZM332.442 43.288H325.674C325.194 43.288 324.794 43.144 324.474 42.856C324.186 42.568 324.042 42.168 324.042 41.656V29.992H310.026V27.304H346.554V29.992H332.442V43.288ZM311.274 20.248C315.37 18.616 318.426 16.52 320.442 13.96C322.49 11.4 323.594 8.52 323.754 5.32C323.69 4.776 323.514 4.408 323.226 4.216C322.97 4.024 322.602 3.928 322.122 3.928H321.162V2.2H332.634V4.648C332.73 8.04 333.786 11.08 335.802 13.768C337.818 16.424 340.954 18.536 345.21 20.104L343.914 22.696C342.282 22.248 340.682 21.688 339.114 21.016C337.546 20.312 336.074 19.528 334.698 18.664C333.354 17.768 332.138 16.792 331.05 15.736C329.962 14.68 329.066 13.576 328.362 12.424C327.626 13.576 326.698 14.696 325.578 15.784C324.49 16.872 323.258 17.864 321.882 18.76C320.506 19.656 319.018 20.456 317.418 21.16C315.85 21.864 314.25 22.408 312.618 22.792L311.274 20.248Z" fill="#D800A8"/>

    </g>
    <!-- #endregion -->

    <!-- #region description -->
    <g class="animate-fade-in-bottom description">
      <path d="M6.14897 9.552V18H3.55697C3.18897 18 2.90097 17.896 2.69297 17.688C2.50097 17.48 2.40497 17.192 2.40497 16.824V3.624C2.40497 2.488 1.78097 1.92 0.532969 1.92V1.152H13.589V4.848H13.133C13.101 4.336 13.013 3.92 12.869 3.6C12.741 3.264 12.549 3.008 12.293 2.832C12.053 2.64 11.757 2.512 11.405 2.448C11.053 2.384 10.653 2.352 10.205 2.352H6.14897V8.376H8.93297C9.47697 8.376 9.88497 8.288 10.157 8.112C10.445 7.936 10.589 7.52 10.589 6.864H11.045V11.064H10.589C10.589 10.408 10.445 9.992 10.157 9.816C9.88497 9.64 9.47697 9.552 8.93297 9.552H6.14897ZM19.5781 18H17.0101C16.6421 18 16.3541 17.904 16.1461 17.712C15.9541 17.504 15.8581 17.232 15.8581 16.896V8.088C15.8581 7 15.2341 6.456 13.9861 6.456V5.856H18.5461C18.9301 5.856 19.1861 5.984 19.3141 6.24C19.4581 6.496 19.5461 6.808 19.5781 7.176C20.1701 6.632 20.7461 6.256 21.3061 6.048C21.8821 5.84 22.5301 5.736 23.2501 5.736C23.6181 5.736 24.0581 5.8 24.5701 5.928C25.0981 6.04 25.7221 6.312 26.4421 6.744L25.9141 7.8C25.4341 7.528 24.9861 7.32 24.5701 7.176C24.1701 7.016 23.7061 6.936 23.1781 6.936C21.7381 6.936 20.5381 7.512 19.5781 8.664V18ZM32.8295 17.16C34.0135 17.16 34.7735 16.736 35.1095 15.888C35.1895 15.68 35.2615 15.48 35.3255 15.288C35.3895 15.08 35.4375 14.84 35.4695 14.568C35.5175 14.28 35.5495 13.936 35.5655 13.536C35.5975 13.136 35.6135 12.64 35.6135 12.048C35.6135 11.456 35.5975 10.968 35.5655 10.584C35.5495 10.184 35.5175 9.848 35.4695 9.576C35.4375 9.288 35.3895 9.04 35.3255 8.832C35.2615 8.624 35.1895 8.416 35.1095 8.208C34.7735 7.36 34.0135 6.936 32.8295 6.936C31.5015 6.936 30.6775 7.456 30.3575 8.496C30.3095 8.72 30.2615 8.928 30.2135 9.12C30.1815 9.312 30.1495 9.536 30.1175 9.792C30.1015 10.032 30.0855 10.336 30.0695 10.704C30.0535 11.056 30.0455 11.504 30.0455 12.048C30.0455 12.592 30.0535 13.048 30.0695 13.416C30.0855 13.768 30.1015 14.072 30.1175 14.328C30.1495 14.584 30.1815 14.808 30.2135 15C30.2615 15.192 30.3095 15.392 30.3575 15.6C30.6615 16.64 31.4855 17.16 32.8295 17.16ZM32.8295 18.36C30.7015 18.36 29.0855 17.816 27.9815 16.728C26.8615 15.624 26.3015 14.064 26.3015 12.048C26.3015 10.048 26.8695 8.496 28.0055 7.392C29.1095 6.288 30.7175 5.736 32.8295 5.736C34.9095 5.736 36.5175 6.288 37.6535 7.392C38.7735 8.496 39.3335 10.048 39.3335 12.048C39.3335 14.08 38.7815 15.64 37.6775 16.728C36.5735 17.816 34.9575 18.36 32.8295 18.36ZM45.4062 18H42.8382C42.4702 18 42.1822 17.904 41.9742 17.712C41.7822 17.504 41.6862 17.232 41.6862 16.896V8.088C41.6862 7 41.0622 6.456 39.8142 6.456V5.856H44.3742C44.7102 5.856 44.9582 5.976 45.1182 6.216C45.1982 6.344 45.2462 6.456 45.2622 6.552C45.6942 6.28 46.1502 6.08 46.6302 5.952C47.1262 5.808 47.5822 5.736 47.9982 5.736C49.9022 5.736 51.3422 6.096 52.3182 6.816C53.3102 7.52 53.8062 8.6 53.8062 10.056V18H51.2142C50.8462 18 50.5582 17.904 50.3502 17.712C50.1582 17.504 50.0622 17.232 50.0622 16.896V11.016C50.0622 9.56 49.8702 8.52 49.4862 7.896C49.1022 7.256 48.5262 6.936 47.7582 6.936C46.9422 6.936 46.1422 7.216 45.3582 7.776C45.3742 7.936 45.3822 8.088 45.3822 8.232C45.3982 8.376 45.4062 8.52 45.4062 8.664V18ZM60.4079 15.072C60.4079 15.872 60.5599 16.424 60.8639 16.728C61.1679 17.016 61.5279 17.16 61.9439 17.16C62.3119 17.16 62.6239 17.08 62.8799 16.92C63.1359 16.76 63.3679 16.544 63.5759 16.272L64.4159 16.944C64.3039 17.184 64.1439 17.392 63.9359 17.568C63.7279 17.744 63.4959 17.888 63.2399 18C62.9999 18.128 62.7439 18.216 62.4719 18.264C62.1999 18.328 61.9439 18.36 61.7039 18.36C59.9759 18.36 58.7039 17.84 57.8879 16.8C57.0719 15.744 56.6639 14.24 56.6639 12.288V7.8C56.6639 7.048 56.2959 6.672 55.5599 6.672H54.7919V5.736H55.8239C56.5759 5.736 57.1359 5.488 57.5039 4.992C57.8719 4.48 58.0559 3.672 58.0559 2.568H60.4079V5.736H63.6719V6.936H60.4079V15.072ZM73.5091 11.208C73.4931 10.504 73.4451 9.92 73.3651 9.456C73.2851 8.992 73.1891 8.608 73.0771 8.304C72.8691 7.808 72.5731 7.456 72.1891 7.248C71.8211 7.04 71.3331 6.936 70.7251 6.936C69.5411 6.936 68.7651 7.344 68.3971 8.16C68.2211 8.544 68.1011 8.984 68.0371 9.48C67.9731 9.96 67.9411 10.536 67.9411 11.208H73.5091ZM70.7251 18.36C68.6131 18.36 66.9971 17.824 65.8771 16.752C65.3171 16.208 64.8931 15.52 64.6051 14.688C64.3171 13.856 64.1731 12.936 64.1731 11.928C64.1731 9.992 64.7491 8.472 65.9011 7.368C67.0371 6.28 68.6451 5.736 70.7251 5.736C72.8051 5.736 74.4131 6.28 75.5491 7.368C76.1091 7.896 76.5251 8.56 76.7971 9.36C77.0691 10.144 77.2131 11.016 77.2291 11.976V12.384H67.9411C67.9411 13.024 67.9571 13.56 67.9891 13.992C68.0211 14.408 68.0611 14.76 68.1091 15.048C68.1571 15.32 68.2051 15.528 68.2531 15.672C68.3011 15.816 68.3411 15.92 68.3731 15.984C68.5171 16.24 68.6771 16.448 68.8531 16.608C69.0451 16.752 69.2451 16.872 69.4531 16.968C69.6771 17.048 69.9091 17.104 70.1491 17.136C70.4051 17.168 70.6531 17.184 70.8931 17.184C71.8851 17.184 72.7811 17.048 73.5811 16.776C74.3971 16.504 75.1651 16.032 75.8851 15.36L76.6531 16.296C76.1731 16.776 75.6771 17.152 75.1651 17.424C74.6531 17.696 74.1331 17.896 73.6051 18.024C73.0931 18.168 72.5891 18.256 72.0931 18.288C71.6131 18.336 71.1571 18.36 70.7251 18.36ZM83.4922 18H80.9242C80.5562 18 80.2682 17.904 80.0602 17.712C79.8682 17.504 79.7722 17.232 79.7722 16.896V8.088C79.7722 7 79.1482 6.456 77.9002 6.456V5.856H82.4602C82.7962 5.856 83.0442 5.976 83.2042 6.216C83.2842 6.344 83.3322 6.456 83.3482 6.552C83.7802 6.28 84.2362 6.08 84.7162 5.952C85.2122 5.808 85.6682 5.736 86.0842 5.736C87.9882 5.736 89.4282 6.096 90.4042 6.816C91.3962 7.52 91.8922 8.6 91.8922 10.056V18H89.3002C88.9322 18 88.6442 17.904 88.4362 17.712C88.2442 17.504 88.1482 17.232 88.1482 16.896V11.016C88.1482 9.56 87.9562 8.52 87.5722 7.896C87.1882 7.256 86.6122 6.936 85.8442 6.936C85.0282 6.936 84.2282 7.216 83.4442 7.776C83.4602 7.936 83.4682 8.088 83.4682 8.232C83.4842 8.376 83.4922 8.52 83.4922 8.664V18ZM105.732 15.768C105.732 16.872 106.348 17.424 107.58 17.424V18H103.068C102.844 18 102.644 17.944 102.468 17.832C102.292 17.72 102.172 17.528 102.108 17.256C101.804 17.624 101.38 17.896 100.836 18.072C100.308 18.264 99.8443 18.36 99.4443 18.36C98.5323 18.36 97.7163 18.192 96.9963 17.856C96.2763 17.504 95.6603 17.032 95.1483 16.44C94.6523 15.848 94.2683 15.16 93.9963 14.376C93.7403 13.592 93.6123 12.768 93.6123 11.904C93.6123 9.984 94.1563 8.48 95.2443 7.392C96.3483 6.288 97.8203 5.736 99.6603 5.736C100.428 5.736 101.212 5.992 102.012 6.504V2.496C102.012 1.408 101.388 0.863999 100.14 0.863999V0.263999H104.796C105.42 0.263999 105.732 0.888 105.732 2.136V15.768ZM97.3563 11.904C97.3563 12.56 97.3563 13.12 97.3563 13.584C97.3723 14.032 97.3883 14.408 97.4043 14.712C97.4363 15 97.4683 15.232 97.5003 15.408C97.5323 15.584 97.5643 15.72 97.5963 15.816C97.9803 16.712 98.6683 17.16 99.6603 17.16C100.076 17.16 100.5 17.056 100.932 16.848C101.364 16.624 101.724 16.352 102.012 16.032V7.752C101.228 7.208 100.444 6.936 99.6603 6.936C98.6523 6.936 97.9643 7.384 97.5963 8.28C97.5643 8.408 97.5323 8.552 97.5003 8.712C97.4683 8.856 97.4363 9.064 97.4043 9.336C97.3883 9.592 97.3723 9.928 97.3563 10.344C97.3563 10.744 97.3563 11.264 97.3563 11.904ZM122.364 16.8C123.356 16.8 124.124 16.56 124.668 16.08C125.228 15.6 125.636 15 125.892 14.28C126.164 13.544 126.324 12.76 126.372 11.928C126.436 11.08 126.468 10.296 126.468 9.576C126.468 8.792 126.436 7.976 126.372 7.128C126.308 6.28 126.14 5.504 125.868 4.8C125.596 4.096 125.188 3.512 124.644 3.048C124.116 2.584 123.372 2.352 122.412 2.352H120.852V16.8H122.364ZM118.284 18C117.916 18 117.628 17.896 117.42 17.688C117.228 17.464 117.132 17.176 117.132 16.824V3.6C117.132 2.48 116.508 1.92 115.26 1.92V1.152H122.964C123.972 1.152 124.932 1.352 125.844 1.752C126.756 2.152 127.548 2.76 128.22 3.576C128.876 4.392 129.372 5.304 129.708 6.312C130.044 7.304 130.212 8.392 130.212 9.576C130.212 11.944 129.548 13.936 128.22 15.552C127.548 16.368 126.756 16.984 125.844 17.4C124.932 17.8 123.972 18 122.964 18H118.284ZM140.775 11.208C140.759 10.504 140.711 9.92 140.631 9.456C140.551 8.992 140.455 8.608 140.343 8.304C140.135 7.808 139.839 7.456 139.455 7.248C139.087 7.04 138.599 6.936 137.991 6.936C136.807 6.936 136.031 7.344 135.663 8.16C135.487 8.544 135.367 8.984 135.303 9.48C135.239 9.96 135.207 10.536 135.207 11.208H140.775ZM137.991 18.36C135.879 18.36 134.263 17.824 133.143 16.752C132.583 16.208 132.159 15.52 131.871 14.688C131.583 13.856 131.439 12.936 131.439 11.928C131.439 9.992 132.015 8.472 133.167 7.368C134.303 6.28 135.911 5.736 137.991 5.736C140.071 5.736 141.679 6.28 142.815 7.368C143.375 7.896 143.791 8.56 144.063 9.36C144.335 10.144 144.479 11.016 144.495 11.976V12.384H135.207C135.207 13.024 135.223 13.56 135.255 13.992C135.287 14.408 135.327 14.76 135.375 15.048C135.423 15.32 135.471 15.528 135.519 15.672C135.567 15.816 135.607 15.92 135.639 15.984C135.783 16.24 135.943 16.448 136.119 16.608C136.311 16.752 136.511 16.872 136.719 16.968C136.943 17.048 137.175 17.104 137.415 17.136C137.671 17.168 137.919 17.184 138.159 17.184C139.151 17.184 140.047 17.048 140.847 16.776C141.663 16.504 142.431 16.032 143.151 15.36L143.919 16.296C143.439 16.776 142.943 17.152 142.431 17.424C141.919 17.696 141.399 17.896 140.871 18.024C140.359 18.168 139.855 18.256 139.359 18.288C138.879 18.336 138.423 18.36 137.991 18.36ZM152.672 14.424L155.264 7.944C155.328 7.8 155.368 7.664 155.384 7.536C155.416 7.392 155.432 7.272 155.432 7.176C155.432 7.112 155.424 7.04 155.408 6.96C155.408 6.864 155.376 6.784 155.312 6.72C155.264 6.64 155.176 6.576 155.048 6.528C154.92 6.48 154.744 6.456 154.52 6.456V5.856H158.288V6.456C157.952 6.472 157.624 6.552 157.304 6.696C157 6.824 156.744 7.144 156.536 7.656L153.728 14.568L152.408 18H151.496C151.064 18 150.712 17.84 150.44 17.52C150.184 17.2 149.952 16.792 149.744 16.296L146.432 8.04C146.272 7.656 146.112 7.36 145.952 7.152C145.808 6.928 145.672 6.776 145.544 6.696C145.432 6.616 145.264 6.56 145.04 6.528C144.832 6.48 144.592 6.456 144.32 6.456V5.856H148.76C149.112 5.856 149.384 6 149.576 6.288C149.768 6.576 149.968 7 150.176 7.56L152.672 14.424ZM167.329 11.208C167.313 10.504 167.265 9.92 167.185 9.456C167.105 8.992 167.009 8.608 166.897 8.304C166.689 7.808 166.393 7.456 166.009 7.248C165.641 7.04 165.153 6.936 164.545 6.936C163.361 6.936 162.585 7.344 162.217 8.16C162.041 8.544 161.921 8.984 161.857 9.48C161.793 9.96 161.761 10.536 161.761 11.208H167.329ZM164.545 18.36C162.433 18.36 160.817 17.824 159.697 16.752C159.137 16.208 158.713 15.52 158.425 14.688C158.137 13.856 157.993 12.936 157.993 11.928C157.993 9.992 158.569 8.472 159.721 7.368C160.857 6.28 162.465 5.736 164.545 5.736C166.625 5.736 168.233 6.28 169.369 7.368C169.929 7.896 170.345 8.56 170.617 9.36C170.889 10.144 171.033 11.016 171.049 11.976V12.384H161.761C161.761 13.024 161.777 13.56 161.809 13.992C161.841 14.408 161.881 14.76 161.929 15.048C161.977 15.32 162.025 15.528 162.073 15.672C162.121 15.816 162.161 15.92 162.193 15.984C162.337 16.24 162.497 16.448 162.673 16.608C162.865 16.752 163.065 16.872 163.273 16.968C163.497 17.048 163.729 17.104 163.969 17.136C164.225 17.168 164.473 17.184 164.713 17.184C165.705 17.184 166.601 17.048 167.401 16.776C168.217 16.504 168.985 16.032 169.705 15.36L170.473 16.296C169.993 16.776 169.497 17.152 168.985 17.424C168.473 17.696 167.953 17.896 167.425 18.024C166.913 18.168 166.409 18.256 165.913 18.288C165.433 18.336 164.977 18.36 164.545 18.36ZM176.797 18H174.229C173.861 18 173.573 17.904 173.365 17.712C173.173 17.504 173.077 17.232 173.077 16.896V2.496C173.077 1.408 172.453 0.863999 171.205 0.863999V0.263999H175.765C176.085 0.263999 176.333 0.343999 176.509 0.503999C176.701 0.663999 176.797 1.048 176.797 1.656V18ZM185.408 17.16C186.592 17.16 187.352 16.736 187.688 15.888C187.768 15.68 187.84 15.48 187.904 15.288C187.968 15.08 188.016 14.84 188.048 14.568C188.096 14.28 188.128 13.936 188.144 13.536C188.176 13.136 188.192 12.64 188.192 12.048C188.192 11.456 188.176 10.968 188.144 10.584C188.128 10.184 188.096 9.848 188.048 9.576C188.016 9.288 187.968 9.04 187.904 8.832C187.84 8.624 187.768 8.416 187.688 8.208C187.352 7.36 186.592 6.936 185.408 6.936C184.08 6.936 183.256 7.456 182.936 8.496C182.888 8.72 182.84 8.928 182.792 9.12C182.76 9.312 182.728 9.536 182.696 9.792C182.68 10.032 182.664 10.336 182.648 10.704C182.632 11.056 182.624 11.504 182.624 12.048C182.624 12.592 182.632 13.048 182.648 13.416C182.664 13.768 182.68 14.072 182.696 14.328C182.728 14.584 182.76 14.808 182.792 15C182.84 15.192 182.888 15.392 182.936 15.6C183.24 16.64 184.064 17.16 185.408 17.16ZM185.408 18.36C183.28 18.36 181.664 17.816 180.56 16.728C179.44 15.624 178.88 14.064 178.88 12.048C178.88 10.048 179.448 8.496 180.584 7.392C181.688 6.288 183.296 5.736 185.408 5.736C187.488 5.736 189.096 6.288 190.232 7.392C191.352 8.496 191.912 10.048 191.912 12.048C191.912 14.08 191.36 15.64 190.256 16.728C189.152 17.816 187.536 18.36 185.408 18.36ZM202.782 11.928C202.782 11.272 202.774 10.736 202.758 10.32C202.758 9.888 202.742 9.544 202.71 9.288C202.694 9.016 202.67 8.808 202.638 8.664C202.606 8.504 202.566 8.376 202.518 8.28C202.134 7.384 201.454 6.936 200.478 6.936C199.694 6.936 198.902 7.216 198.102 7.776C198.118 7.936 198.126 8.088 198.126 8.232C198.126 8.376 198.126 8.52 198.126 8.664V16.344C198.91 16.888 199.694 17.16 200.478 17.16C201.454 17.16 202.134 16.712 202.518 15.816C202.566 15.704 202.606 15.56 202.638 15.384C202.67 15.192 202.694 14.952 202.71 14.664C202.742 14.36 202.758 13.992 202.758 13.56C202.774 13.112 202.782 12.568 202.782 11.928ZM194.406 8.088C194.406 7 193.782 6.456 192.534 6.456V5.856H197.07C197.182 5.856 197.302 5.872 197.43 5.904C197.574 5.936 197.686 6.008 197.766 6.12C197.846 6.2 197.902 6.288 197.934 6.384C197.966 6.464 197.99 6.52 198.006 6.552C198.326 6.312 198.718 6.12 199.182 5.976C199.646 5.816 200.078 5.736 200.478 5.736C202.302 5.736 203.766 6.288 204.87 7.392C205.414 7.952 205.822 8.608 206.094 9.36C206.382 10.096 206.526 10.952 206.526 11.928C206.526 12.904 206.382 13.808 206.094 14.64C205.822 15.472 205.414 16.168 204.87 16.728C203.782 17.816 202.318 18.36 200.478 18.36C199.71 18.36 198.926 18.104 198.126 17.592V22.656H195.558C194.79 22.656 194.406 22.288 194.406 21.552V8.088ZM217.228 11.208C217.212 10.504 217.164 9.92 217.084 9.456C217.004 8.992 216.908 8.608 216.796 8.304C216.588 7.808 216.292 7.456 215.908 7.248C215.54 7.04 215.052 6.936 214.444 6.936C213.26 6.936 212.484 7.344 212.116 8.16C211.94 8.544 211.82 8.984 211.756 9.48C211.692 9.96 211.66 10.536 211.66 11.208H217.228ZM214.444 18.36C212.332 18.36 210.716 17.824 209.596 16.752C209.036 16.208 208.612 15.52 208.324 14.688C208.036 13.856 207.892 12.936 207.892 11.928C207.892 9.992 208.468 8.472 209.62 7.368C210.756 6.28 212.364 5.736 214.444 5.736C216.524 5.736 218.132 6.28 219.268 7.368C219.828 7.896 220.244 8.56 220.516 9.36C220.788 10.144 220.932 11.016 220.948 11.976V12.384H211.66C211.66 13.024 211.676 13.56 211.708 13.992C211.74 14.408 211.78 14.76 211.828 15.048C211.876 15.32 211.924 15.528 211.972 15.672C212.02 15.816 212.06 15.92 212.092 15.984C212.236 16.24 212.396 16.448 212.572 16.608C212.764 16.752 212.964 16.872 213.172 16.968C213.396 17.048 213.628 17.104 213.868 17.136C214.124 17.168 214.372 17.184 214.612 17.184C215.604 17.184 216.5 17.048 217.3 16.776C218.116 16.504 218.884 16.032 219.604 15.36L220.372 16.296C219.892 16.776 219.396 17.152 218.884 17.424C218.372 17.696 217.852 17.896 217.324 18.024C216.812 18.168 216.308 18.256 215.812 18.288C215.332 18.336 214.876 18.36 214.444 18.36ZM226.93 18H224.362C223.994 18 223.706 17.904 223.498 17.712C223.306 17.504 223.21 17.232 223.21 16.896V8.088C223.21 7 222.586 6.456 221.338 6.456V5.856H225.898C226.282 5.856 226.538 5.984 226.666 6.24C226.81 6.496 226.898 6.808 226.93 7.176C227.522 6.632 228.098 6.256 228.658 6.048C229.234 5.84 229.882 5.736 230.602 5.736C230.97 5.736 231.41 5.8 231.922 5.928C232.45 6.04 233.074 6.312 233.794 6.744L233.266 7.8C232.786 7.528 232.338 7.32 231.922 7.176C231.522 7.016 231.058 6.936 230.53 6.936C229.09 6.936 227.89 7.512 226.93 8.664V18Z" fill="#8C8C8C"/>
    </g>
    <!-- #endregion -->
  </g>

  <!-- #region defs -->
  <defs>
    <linearGradient id="paint0_linear_1_2" x1="448" y1="0" x2="448" y2="288" gradientUnits="userSpaceOnUse">
      <stop stop-color="#e2e8f0"/>
      <stop offset="1" stop-color="#e2e8f0" stop-opacity="0"/>
    </linearGradient>
    <linearGradient id="paint1_linear_1_2" x1="448" y1="0" x2="448" y2="288" gradientUnits="userSpaceOnUse">
      <stop/>
      <stop offset="1" stop-opacity="0"/>
    </linearGradient>
    <clipPath id="clip0_1_2">
      <path d="M0 32C0 14.3269 14.3269 0 32 0H864C881.673 0 896 14.3269 896 32V288H0V32Z" fill="white"/>
    </clipPath>
  </defs>
  <!-- #endregion -->
</svg>
