<svg width="896" height="25" viewBox="0 0 896 25" fill="none" xmlns="http://www.w3.org/2000/svg">
	<style>
    * {
      transform-origin: center;
      transform-box: fill-box;
    }

		.animate-ping {
      animation: ping 1s cubic-bezier(0, 0, 0.2, 1) infinite;
    }

    .animate-fade-in {
      animation: fade-in 0.64s cubic-bezier(0, 0, 0.2, 1) forwards;
    }

		.additional {
      opacity: 0;
      animation-delay: 1s;
    }

    .additional__indicator {
      opacity: 0;
      animation-delay: 1.6s;
    }

		@keyframes ping {
      75%,
      100% {
        transform: scale(2);
        opacity: 0;
      }
    }

		@keyframes fade-in {
      from {
        opacity: 0;
      }
      to {
        opacity: 1;
      }
    }
  </style>
	<rect width="896" height="25" fill="white"/>

	<g class="additional__indicator animate-fade-in">
		<path d="M424.297 13.952C424.297 13.5147 424.292 13.1573 424.281 12.88C424.281 12.592 424.27 12.3627 424.249 12.192C424.238 12.0107 424.222 11.872 424.201 11.776C424.18 11.6693 424.153 11.584 424.121 11.52C423.865 10.9227 423.412 10.624 422.761 10.624C422.238 10.624 421.71 10.8107 421.177 11.184C421.188 11.2907 421.193 11.392 421.193 11.488C421.193 11.584 421.193 11.68 421.193 11.776V16.896C421.716 17.2587 422.238 17.44 422.761 17.44C423.412 17.44 423.865 17.1413 424.121 16.544C424.153 16.4693 424.18 16.3733 424.201 16.256C424.222 16.128 424.238 15.968 424.249 15.776C424.27 15.5733 424.281 15.328 424.281 15.04C424.292 14.7413 424.297 14.3787 424.297 13.952ZM418.713 11.392C418.713 10.6667 418.297 10.304 417.465 10.304V9.904H420.489C420.564 9.904 420.644 9.91467 420.729 9.936C420.825 9.95733 420.9 10.0053 420.953 10.08C421.006 10.1333 421.044 10.192 421.065 10.256C421.086 10.3093 421.102 10.3467 421.113 10.368C421.326 10.208 421.588 10.08 421.897 9.984C422.206 9.87733 422.494 9.824 422.761 9.824C423.977 9.824 424.953 10.192 425.689 10.928C426.052 11.3013 426.324 11.7387 426.505 12.24C426.697 12.7307 426.793 13.3013 426.793 13.952C426.793 14.6027 426.697 15.2053 426.505 15.76C426.324 16.3147 426.052 16.7787 425.689 17.152C424.964 17.8773 423.988 18.24 422.761 18.24C422.249 18.24 421.726 18.0693 421.193 17.728V21.104H419.481C418.969 21.104 418.713 20.8587 418.713 20.368V11.392ZM432.152 17.44C432.941 17.44 433.448 17.1573 433.672 16.592C433.725 16.4533 433.773 16.32 433.816 16.192C433.859 16.0533 433.891 15.8933 433.912 15.712C433.944 15.52 433.965 15.2907 433.976 15.024C433.997 14.7573 434.008 14.4267 434.008 14.032C434.008 13.6373 433.997 13.312 433.976 13.056C433.965 12.7893 433.944 12.5653 433.912 12.384C433.891 12.192 433.859 12.0267 433.816 11.888C433.773 11.7493 433.725 11.6107 433.672 11.472C433.448 10.9067 432.941 10.624 432.152 10.624C431.267 10.624 430.717 10.9707 430.504 11.664C430.472 11.8133 430.44 11.952 430.408 12.08C430.387 12.208 430.365 12.3573 430.344 12.528C430.333 12.688 430.323 12.8907 430.312 13.136C430.301 13.3707 430.296 13.6693 430.296 14.032C430.296 14.3947 430.301 14.6987 430.312 14.944C430.323 15.1787 430.333 15.3813 430.344 15.552C430.365 15.7227 430.387 15.872 430.408 16C430.44 16.128 430.472 16.2613 430.504 16.4C430.707 17.0933 431.256 17.44 432.152 17.44ZM432.152 18.24C430.733 18.24 429.656 17.8773 428.92 17.152C428.173 16.416 427.8 15.376 427.8 14.032C427.8 12.6987 428.179 11.664 428.936 10.928C429.672 10.192 430.744 9.824 432.152 9.824C433.539 9.824 434.611 10.192 435.368 10.928C436.115 11.664 436.488 12.6987 436.488 14.032C436.488 15.3867 436.12 16.4267 435.384 17.152C434.648 17.8773 433.571 18.24 432.152 18.24ZM440.536 18H438.824C438.579 18 438.387 17.936 438.248 17.808C438.12 17.6693 438.056 17.488 438.056 17.264V11.392C438.056 10.6667 437.64 10.304 436.808 10.304V9.904H439.848C440.104 9.904 440.275 9.98933 440.36 10.16C440.456 10.3307 440.515 10.5387 440.536 10.784C440.931 10.4213 441.315 10.1707 441.688 10.032C442.072 9.89333 442.504 9.824 442.984 9.824C443.23 9.824 443.523 9.86667 443.864 9.952C444.216 10.0267 444.632 10.208 445.112 10.496L444.76 11.2C444.44 11.0187 444.142 10.88 443.864 10.784C443.598 10.6773 443.288 10.624 442.936 10.624C441.976 10.624 441.176 11.008 440.536 11.776V18ZM448.991 16.048C448.991 16.5813 449.092 16.9493 449.295 17.152C449.497 17.344 449.737 17.44 450.015 17.44C450.26 17.44 450.468 17.3867 450.639 17.28C450.809 17.1733 450.964 17.0293 451.103 16.848L451.663 17.296C451.588 17.456 451.481 17.5947 451.343 17.712C451.204 17.8293 451.049 17.9253 450.879 18C450.719 18.0853 450.548 18.144 450.367 18.176C450.185 18.2187 450.015 18.24 449.855 18.24C448.703 18.24 447.855 17.8933 447.311 17.2C446.767 16.496 446.495 15.4933 446.495 14.192V11.2C446.495 10.6987 446.249 10.448 445.759 10.448H445.247V9.824H445.935C446.436 9.824 446.809 9.65867 447.055 9.328C447.3 8.98667 447.423 8.448 447.423 7.712H448.991V9.824H451.167V10.624H448.991V16.048ZM455.493 10.624V18H453.781C453.536 18 453.344 17.936 453.205 17.808C453.077 17.6693 453.013 17.488 453.013 17.264V10.624H451.765V9.824H453.013C453.035 8.576 453.339 7.65867 453.925 7.072C454.512 6.47467 455.392 6.176 456.565 6.176C456.939 6.176 457.28 6.256 457.589 6.416C457.899 6.56533 458.128 6.76267 458.277 7.008L457.797 7.488C457.552 7.14667 457.184 6.976 456.693 6.976C456.309 6.976 456.011 7.10933 455.797 7.376C455.595 7.632 455.493 8.02133 455.493 8.544V9.824H456.901V10.624H455.493ZM461.558 17.44C462.348 17.44 462.854 17.1573 463.078 16.592C463.132 16.4533 463.18 16.32 463.222 16.192C463.265 16.0533 463.297 15.8933 463.318 15.712C463.35 15.52 463.372 15.2907 463.382 15.024C463.404 14.7573 463.414 14.4267 463.414 14.032C463.414 13.6373 463.404 13.312 463.382 13.056C463.372 12.7893 463.35 12.5653 463.318 12.384C463.297 12.192 463.265 12.0267 463.222 11.888C463.18 11.7493 463.132 11.6107 463.078 11.472C462.854 10.9067 462.348 10.624 461.558 10.624C460.673 10.624 460.124 10.9707 459.91 11.664C459.878 11.8133 459.846 11.952 459.814 12.08C459.793 12.208 459.772 12.3573 459.75 12.528C459.74 12.688 459.729 12.8907 459.718 13.136C459.708 13.3707 459.702 13.6693 459.702 14.032C459.702 14.3947 459.708 14.6987 459.718 14.944C459.729 15.1787 459.74 15.3813 459.75 15.552C459.772 15.7227 459.793 15.872 459.814 16C459.846 16.128 459.878 16.2613 459.91 16.4C460.113 17.0933 460.662 17.44 461.558 17.44ZM461.558 18.24C460.14 18.24 459.062 17.8773 458.326 17.152C457.58 16.416 457.206 15.376 457.206 14.032C457.206 12.6987 457.585 11.664 458.342 10.928C459.078 10.192 460.15 9.824 461.558 9.824C462.945 9.824 464.017 10.192 464.774 10.928C465.521 11.664 465.894 12.6987 465.894 14.032C465.894 15.3867 465.526 16.4267 464.79 17.152C464.054 17.8773 462.977 18.24 461.558 18.24ZM469.786 18H468.074C467.829 18 467.637 17.936 467.498 17.808C467.37 17.6693 467.306 17.488 467.306 17.264V7.664C467.306 6.93867 466.89 6.576 466.058 6.576V6.176H469.098C469.312 6.176 469.477 6.22933 469.594 6.336C469.722 6.44267 469.786 6.69867 469.786 7.104V18ZM474.759 18H473.047C472.802 18 472.61 17.936 472.471 17.808C472.343 17.6693 472.279 17.488 472.279 17.264V11.392C472.279 10.6667 471.863 10.304 471.031 10.304V9.904H474.007C474.22 9.904 474.396 9.95733 474.535 10.064C474.684 10.1707 474.759 10.432 474.759 10.848V18ZM472.631 8.304C472.386 8.048 472.263 7.75467 472.263 7.424C472.263 7.08267 472.386 6.78933 472.631 6.544C472.876 6.29867 473.17 6.176 473.511 6.176C473.852 6.176 474.146 6.29867 474.391 6.544C474.636 6.78933 474.759 7.08267 474.759 7.424C474.759 7.75467 474.636 8.048 474.391 8.304C474.146 8.54933 473.852 8.672 473.511 8.672C473.17 8.672 472.876 8.54933 472.631 8.304ZM480.168 17.44C480.957 17.44 481.464 17.1573 481.688 16.592C481.741 16.4533 481.789 16.32 481.832 16.192C481.874 16.0533 481.906 15.8933 481.928 15.712C481.96 15.52 481.981 15.2907 481.992 15.024C482.013 14.7573 482.024 14.4267 482.024 14.032C482.024 13.6373 482.013 13.312 481.992 13.056C481.981 12.7893 481.96 12.5653 481.928 12.384C481.906 12.192 481.874 12.0267 481.832 11.888C481.789 11.7493 481.741 11.6107 481.688 11.472C481.464 10.9067 480.957 10.624 480.168 10.624C479.282 10.624 478.733 10.9707 478.52 11.664C478.488 11.8133 478.456 11.952 478.424 12.08C478.402 12.208 478.381 12.3573 478.36 12.528C478.349 12.688 478.338 12.8907 478.328 13.136C478.317 13.3707 478.312 13.6693 478.312 14.032C478.312 14.3947 478.317 14.6987 478.328 14.944C478.338 15.1787 478.349 15.3813 478.36 15.552C478.381 15.7227 478.402 15.872 478.424 16C478.456 16.128 478.488 16.2613 478.52 16.4C478.722 17.0933 479.272 17.44 480.168 17.44ZM480.168 18.24C478.749 18.24 477.672 17.8773 476.936 17.152C476.189 16.416 475.816 15.376 475.816 14.032C475.816 12.6987 476.194 11.664 476.952 10.928C477.688 10.192 478.76 9.824 480.168 9.824C481.554 9.824 482.626 10.192 483.384 10.928C484.13 11.664 484.504 12.6987 484.504 14.032C484.504 15.3867 484.136 16.4267 483.4 17.152C482.664 17.8773 481.586 18.24 480.168 18.24ZM485.601 17.056C485.601 16.7147 485.718 16.4213 485.953 16.176C486.198 15.9307 486.491 15.808 486.833 15.808C487.174 15.808 487.467 15.9307 487.713 16.176C487.958 16.4213 488.081 16.7147 488.081 17.056C488.081 17.3973 487.958 17.6907 487.713 17.936C487.467 18.1813 487.174 18.304 486.833 18.304C486.491 18.304 486.198 18.1813 485.953 17.936C485.718 17.6907 485.601 17.3973 485.601 17.056Z" fill="black"/>
		<rect class="animate-ping" x="407" y="11" width="5" height="5" rx="2.5" fill="#00BC40"/>
		<rect x="407" y="11" width="5" height="5" rx="2.5" fill="#00BC40"/>
	</g>
</svg>
