<svg width="896" height="300" viewBox="0 0 896 300" fill="none" xmlns="http://www.w3.org/2000/svg">
<style>
    * {
      transform-origin: center;
      transform-box: fill-box;
    }

		.animate-ping {
      animation: ping 1s cubic-bezier(0, 0, 0.2, 1) infinite;
    }

    .animate-fade-in {
      animation: fade-in 0.64s cubic-bezier(0, 0, 0.2, 1) forwards;
    }

    .animate-fade-in-bottom {
      animation: fade-in-bottom 0.64s cubic-bezier(0, 0, 0.2, 1) forwards;
    }
				
		.animate-fade-in {
      animation: fade-in 0.64s cubic-bezier(0, 0, 0.2, 1) forwards;
    }

		.additional {
      opacity: 0;
      animation-delay: 1s;
    }

    .additional__indicator {
      opacity: 0;
      animation-delay: 1.6s;
    }

		@keyframes ping {
      75%,
      100% {
        transform: scale(2);
        opacity: 0;
      }
    }

    .title {
      opacity: 0;
      animation-delay: 0.4s;
    }

    .description {
      opacity: 0;
      animation-delay: 0.7s;
    }

    @keyframes fade-in-bottom {
      from {
        opacity: 0;
        transform: translate3d(0, -20px, 0);
      }
      to {
        opacity: 1;
        transform: translate3d(0, 0, 0);
      }
    }
  </style>
<rect width="896" height="300" fill="white"/>
	<!-- 제목 시작 -->
	<path class="animate-fade-in-bottom title" d="M207.837 122.624C207.837 120.704 208.109 119.04 208.653 117.632C209.197 116.192 209.965 115.008 210.957 114.08C211.949 113.12 213.133 112.4 214.509 111.92C215.917 111.44 217.485 111.2 219.213 111.2C222.605 111.2 225.293 112.144 227.277 114.032C229.293 115.92 230.301 118.784 230.301 122.624C230.301 126.464 229.293 129.344 227.277 131.264C225.293 133.184 222.605 134.144 219.213 134.144C217.485 134.144 215.917 133.904 214.509 133.424C213.133 132.944 211.949 132.224 210.957 131.264C209.965 130.304 209.197 129.104 208.653 127.664C208.109 126.224 207.837 124.544 207.837 122.624ZM223.245 122.624C223.245 121.056 223.181 119.728 223.053 118.64C222.957 117.52 222.749 116.624 222.429 115.952C222.141 115.248 221.725 114.752 221.181 114.464C220.669 114.144 220.013 113.984 219.213 113.984C218.381 113.984 217.709 114.144 217.197 114.464C216.685 114.752 216.285 115.248 215.997 115.952C215.709 116.624 215.501 117.52 215.373 118.64C215.277 119.728 215.229 121.056 215.229 122.624C215.229 124.224 215.277 125.584 215.373 126.704C215.501 127.824 215.709 128.736 215.997 129.44C216.285 130.112 216.685 130.608 217.197 130.928C217.709 131.216 218.381 131.36 219.213 131.36C220.013 131.36 220.669 131.216 221.181 130.928C221.725 130.608 222.141 130.112 222.429 129.44C222.749 128.736 222.957 127.824 223.053 126.704C223.181 125.584 223.245 124.224 223.245 122.624ZM234.189 113.888C234.189 113.088 234.029 112.56 233.709 112.304C233.389 112.048 232.957 111.92 232.413 111.92H231.501V110.144H241.773V123.296H246.765V125.696H241.773V140.528H236.013C235.309 140.528 234.829 140.384 234.573 140.096C234.317 139.776 234.189 139.312 234.189 138.704V113.888ZM221.421 149.84H242.493V152.288H215.325C214.493 152.288 213.965 152.064 213.741 151.616C213.517 151.168 213.405 150.64 213.405 150.032V141.344C213.405 140.608 213.245 140.096 212.925 139.808C212.605 139.52 212.141 139.376 211.533 139.376H210.669V137.744H221.421V149.84ZM254.283 144.224C254.283 142.656 254.635 141.296 255.339 140.144C256.043 138.96 257.035 137.968 258.315 137.168C259.595 136.368 261.131 135.776 262.923 135.392C264.747 134.976 266.763 134.768 268.971 134.768C271.211 134.768 273.243 134.976 275.067 135.392C276.891 135.776 278.443 136.368 279.723 137.168C281.003 137.968 281.995 138.96 282.699 140.144C283.403 141.296 283.755 142.656 283.755 144.224C283.755 145.824 283.403 147.2 282.699 148.352C281.995 149.536 281.003 150.512 279.723 151.28C278.443 152.08 276.891 152.672 275.067 153.056C273.243 153.44 271.211 153.632 268.971 153.632C266.763 153.632 264.747 153.44 262.923 153.056C261.131 152.672 259.595 152.08 258.315 151.28C257.035 150.512 256.043 149.536 255.339 148.352C254.635 147.2 254.283 145.824 254.283 144.224ZM266.187 122.24H275.979V118.592H266.187V115.76H275.979V113.888C275.979 113.088 275.819 112.56 275.499 112.304C275.179 112.048 274.731 111.92 274.155 111.92H273.195V110.144H283.515V133.616H277.803C277.067 133.616 276.571 133.472 276.315 133.184C276.091 132.896 275.979 132.432 275.979 131.792V124.976H266.187V122.24ZM250.539 114.464C250.475 113.824 250.299 113.392 250.011 113.168C249.755 112.944 249.387 112.832 248.907 112.832H247.947V111.152H258.267V128.672H271.755V131.456H252.891C252.123 131.456 251.531 131.248 251.115 130.832C250.731 130.384 250.539 129.792 250.539 129.056V114.464ZM261.915 144.224C261.915 145.536 262.075 146.64 262.395 147.536C262.747 148.432 263.227 149.152 263.835 149.696C264.475 150.24 265.227 150.64 266.091 150.896C266.955 151.152 267.915 151.28 268.971 151.28C269.995 151.28 270.939 151.152 271.803 150.896C272.699 150.64 273.467 150.24 274.107 149.696C274.779 149.152 275.291 148.432 275.643 147.536C276.027 146.64 276.219 145.536 276.219 144.224C276.219 142.88 276.027 141.76 275.643 140.864C275.291 139.936 274.779 139.2 274.107 138.656C273.467 138.08 272.699 137.68 271.803 137.456C270.939 137.2 269.995 137.072 268.971 137.072C267.915 137.072 266.955 137.2 266.091 137.456C265.227 137.68 264.475 138.08 263.835 138.656C263.227 139.2 262.747 139.936 262.395 140.864C262.075 141.76 261.915 142.88 261.915 144.224ZM311.672 134.48C311.672 137.072 311.432 139.296 310.952 141.152C310.472 142.976 309.784 144.48 308.888 145.664C307.992 146.816 306.888 147.664 305.576 148.208C304.296 148.752 302.84 149.024 301.208 149.024C299.608 149.024 298.152 148.752 296.84 148.208C295.528 147.664 294.408 146.816 293.48 145.664C292.552 144.48 291.832 142.976 291.32 141.152C290.808 139.296 290.552 137.072 290.552 134.48C290.552 131.888 290.808 129.68 291.32 127.856C291.832 126 292.552 124.496 293.48 123.344C294.408 122.16 295.528 121.296 296.84 120.752C298.152 120.208 299.608 119.936 301.208 119.936C302.84 119.936 304.296 120.208 305.576 120.752C306.888 121.296 307.992 122.16 308.888 123.344C309.784 124.496 310.472 126 310.952 127.856C311.432 129.68 311.672 131.888 311.672 134.48ZM328.52 131.024H323.528V152.432H317.72C316.696 152.432 316.184 151.888 316.184 150.8V113.6C316.12 112.96 315.912 112.528 315.56 112.304C315.208 112.08 314.808 111.968 314.36 111.968H313.4V110.192H323.528V128.336H328.52V131.024ZM304.568 134.48C304.568 132.4 304.536 130.624 304.472 129.152C304.44 127.648 304.312 126.432 304.088 125.504C303.864 124.544 303.528 123.84 303.08 123.392C302.632 122.944 302.008 122.72 301.208 122.72C300.44 122.72 299.832 122.944 299.384 123.392C298.936 123.84 298.6 124.544 298.376 125.504C298.152 126.432 298.008 127.648 297.944 129.152C297.912 130.624 297.896 132.4 297.896 134.48C297.896 136.592 297.912 138.384 297.944 139.856C298.008 141.328 298.152 142.544 298.376 143.504C298.6 144.432 298.936 145.12 299.384 145.568C299.832 145.984 300.44 146.192 301.208 146.192C302.008 146.192 302.632 145.984 303.08 145.568C303.528 145.12 303.864 144.432 304.088 143.504C304.312 142.544 304.44 141.328 304.472 139.856C304.536 138.384 304.568 136.592 304.568 134.48ZM289.016 118.208V115.424H297.896V113.216C297.896 112.48 297.736 111.984 297.416 111.728C297.096 111.44 296.664 111.296 296.12 111.296H295.16V109.52H305.816V115.424H313.16V118.208H289.016ZM328.261 146.96C329.829 145.616 331.093 144.08 332.053 142.352C333.045 140.624 333.797 138.736 334.309 136.688C334.821 134.608 335.157 132.4 335.317 130.064C335.509 127.696 335.605 125.2 335.605 122.576V114.608C335.605 113.84 335.477 113.328 335.221 113.072C334.965 112.784 334.533 112.64 333.925 112.64H333.061V110.96H342.901V120.56C342.901 123.952 342.981 126.928 343.141 129.488C343.301 132.048 343.621 134.336 344.101 136.352C344.613 138.336 345.317 140.112 346.213 141.68C347.141 143.248 348.373 144.72 349.909 146.096L348.133 147.872C347.269 147.424 346.373 146.736 345.445 145.808C344.517 144.848 343.637 143.808 342.805 142.688C341.973 141.568 341.237 140.448 340.597 139.328C339.957 138.176 339.493 137.184 339.205 136.352C338.789 137.696 338.229 139.008 337.525 140.288C336.821 141.568 336.037 142.752 335.173 143.84C334.341 144.896 333.445 145.856 332.485 146.72C331.557 147.584 330.661 148.272 329.797 148.784L328.261 146.96ZM345.157 126.176H350.101V113.888C350.101 113.152 350.037 112.608 349.909 112.256C349.781 111.904 349.349 111.728 348.613 111.728H348.037V109.952H356.533V152.288H351.397C350.917 152.288 350.581 152.144 350.389 151.856C350.197 151.568 350.101 151.28 350.101 150.992V128.96H345.157V126.176ZM359.797 113.888C359.797 113.12 359.717 112.576 359.557 112.256C359.429 111.904 358.981 111.728 358.213 111.728H357.781V109.952H366.181V152.288H361.093C360.645 152.288 360.309 152.16 360.085 151.904C359.893 151.68 359.797 151.376 359.797 150.992V113.888ZM407.538 146.192V148.976H371.01V146.192H377.49V131.6C376.146 130.576 375.106 129.328 374.37 127.856C373.666 126.384 373.314 124.624 373.314 122.576C373.314 120.528 373.714 118.736 374.514 117.2C375.314 115.664 376.418 114.4 377.826 113.408C379.234 112.416 380.914 111.68 382.866 111.2C384.818 110.688 386.946 110.432 389.25 110.432C391.554 110.432 393.682 110.688 395.634 111.2C397.586 111.68 399.266 112.416 400.674 113.408C402.082 114.4 403.17 115.664 403.938 117.2C404.738 118.736 405.138 120.528 405.138 122.576C405.138 124.592 404.77 126.336 404.034 127.808C403.33 129.28 402.306 130.528 400.962 131.552V146.192H407.538ZM389.25 132.032C391.906 132.032 393.954 131.248 395.394 129.68C396.866 128.112 397.602 125.744 397.602 122.576C397.602 119.472 396.866 117.136 395.394 115.568C393.954 114 391.906 113.216 389.25 113.216C386.626 113.216 384.578 114 383.106 115.568C381.634 117.136 380.898 119.472 380.898 122.576C380.898 125.744 381.634 128.112 383.106 129.68C384.578 131.248 386.626 132.032 389.25 132.032ZM389.25 134.816C388.674 134.816 388.082 134.816 387.474 134.816C386.898 134.784 386.37 134.736 385.89 134.672V146.192H392.706V134.672C392.13 134.736 391.57 134.784 391.026 134.816C390.482 134.816 389.89 134.816 389.25 134.816ZM418.025 143.168C418.089 144.064 418.057 144.784 417.929 145.328C417.833 145.872 417.641 146.464 417.353 147.104C416.873 148.096 416.185 148.992 415.289 149.792C414.425 150.592 413.433 151.12 412.313 151.376L411.737 150.08C412.665 149.696 413.353 149.248 413.801 148.736C414.281 148.224 414.521 147.808 414.521 147.488C414.521 147.36 414.505 147.216 414.473 147.056C414.441 146.928 414.265 146.864 413.945 146.864C412.985 146.928 412.169 146.624 411.497 145.952C410.825 145.28 410.489 144.416 410.489 143.36C410.489 142.24 410.809 141.312 411.449 140.576C412.121 139.808 413.017 139.424 414.137 139.424C415.225 139.424 416.121 139.76 416.825 140.432C417.529 141.104 417.929 142.016 418.025 143.168ZM561.2 137.648C561.2 137.072 561.024 136.656 560.672 136.4C560.352 136.144 559.968 136.016 559.52 136.016H558.32V134.288H568.736V140.624H583.76V137.408C583.76 136.352 583.168 135.824 581.984 135.824H580.976V134.048H591.296V152.288H563.408C562.64 152.288 562.08 152.048 561.728 151.568C561.376 151.088 561.2 150.512 561.2 149.84V137.648ZM556.4 120.56C556.4 118.768 556.672 117.248 557.216 116C557.76 114.752 558.528 113.744 559.52 112.976C560.512 112.176 561.696 111.6 563.072 111.248C564.48 110.896 566.048 110.72 567.776 110.72C569.472 110.72 570.992 110.896 572.336 111.248C573.712 111.6 574.88 112.176 575.84 112.976C576.8 113.744 577.536 114.752 578.048 116C578.592 117.248 578.864 118.768 578.864 120.56C578.864 122.352 578.592 123.888 578.048 125.168C577.536 126.416 576.8 127.44 575.84 128.24C574.88 129.04 573.712 129.632 572.336 130.016C570.992 130.368 569.472 130.544 567.776 130.544C566.048 130.544 564.48 130.368 563.072 130.016C561.696 129.632 560.512 129.04 559.52 128.24C558.528 127.44 557.76 126.416 557.216 125.168C556.672 123.888 556.4 122.352 556.4 120.56ZM583.76 113.888C583.76 113.088 583.6 112.56 583.28 112.304C582.96 112.048 582.512 111.92 581.936 111.92H580.976V110.144H591.296V131.648H585.584C584.848 131.648 584.352 131.504 584.096 131.216C583.872 130.928 583.76 130.464 583.76 129.824V113.888ZM571.808 120.56C571.808 118.32 571.536 116.576 570.992 115.328C570.48 114.08 569.408 113.456 567.776 113.456C566.944 113.456 566.272 113.616 565.76 113.936C565.248 114.256 564.848 114.72 564.56 115.328C564.272 115.936 564.064 116.688 563.936 117.584C563.84 118.448 563.792 119.44 563.792 120.56C563.792 121.68 563.84 122.688 563.936 123.584C564.064 124.448 564.272 125.2 564.56 125.84C564.848 126.448 565.248 126.912 565.76 127.232C566.272 127.552 566.944 127.712 567.776 127.712C569.408 127.712 570.48 127.088 570.992 125.84C571.536 124.56 571.808 122.8 571.808 120.56ZM583.76 149.36V143.36H568.736V149.36H583.76ZM620.797 147.776H602.413C601.581 147.776 600.989 147.552 600.637 147.104C600.285 146.656 600.109 146.08 600.109 145.376V115.04C600.109 114.304 599.933 113.808 599.581 113.552C599.229 113.264 598.797 113.12 598.285 113.12H597.373V111.44H607.645V144.992H620.797V147.776ZM631.549 152.48H625.789C624.733 152.48 624.205 151.936 624.205 150.848V114.656C624.205 113.728 624.077 113.056 623.821 112.64C623.565 112.224 623.005 112.016 622.141 112.016H621.421V110.192H631.549V152.48ZM660.906 147.776H642.426C641.658 147.776 641.066 147.552 640.65 147.104C640.266 146.656 640.074 146.08 640.074 145.376V115.04C640.074 114.304 639.93 113.808 639.642 113.552C639.386 113.264 638.986 113.12 638.442 113.12H637.482V111.44H659.322V114.224H647.754V144.992H660.906V147.776ZM676.698 131.024H671.658V152.432H665.898C665.418 152.432 665.034 152.288 664.746 152C664.458 151.712 664.314 151.312 664.314 150.8V113.6C664.25 112.96 664.058 112.528 663.738 112.304C663.45 112.08 663.05 111.968 662.538 111.968H661.338V110.192H671.658V128.336H676.698V131.024ZM679.224 143.168C679.224 142.144 679.576 141.264 680.28 140.528C681.016 139.792 681.896 139.424 682.92 139.424C683.944 139.424 684.824 139.792 685.56 140.528C686.296 141.264 686.664 142.144 686.664 143.168C686.664 144.192 686.296 145.072 685.56 145.808C684.824 146.544 683.944 146.912 682.92 146.912C681.896 146.912 681.016 146.544 680.28 145.808C679.576 145.072 679.224 144.192 679.224 143.168Z" fill="black"/>
	<path class="animate-fade-in-bottom title" d="M441.079 144.224C441.079 142.656 441.431 141.296 442.135 140.144C442.839 138.96 443.831 137.968 445.111 137.168C446.391 136.368 447.927 135.776 449.719 135.392C451.543 134.976 453.559 134.768 455.767 134.768C458.007 134.768 460.039 134.976 461.863 135.392C463.687 135.776 465.239 136.368 466.519 137.168C467.799 137.968 468.791 138.96 469.495 140.144C470.199 141.296 470.551 142.656 470.551 144.224C470.551 145.824 470.199 147.2 469.495 148.352C468.791 149.536 467.799 150.512 466.519 151.28C465.239 152.08 463.687 152.672 461.863 153.056C460.039 153.44 458.007 153.632 455.767 153.632C453.559 153.632 451.543 153.44 449.719 153.056C447.927 152.672 446.391 152.08 445.111 151.28C443.831 150.512 442.839 149.536 442.135 148.352C441.431 147.2 441.079 145.824 441.079 144.224ZM457.495 114.416H450.871V117.056C450.871 118.976 451.079 120.624 451.495 122C451.943 123.344 452.567 124.528 453.367 125.552C454.199 126.544 455.175 127.408 456.295 128.144C457.447 128.88 458.727 129.568 460.135 130.208L458.839 132.512C456.023 131.776 453.671 130.768 451.783 129.488C449.927 128.208 448.391 126.688 447.175 124.928C445.767 127.104 444.151 128.944 442.327 130.448C440.535 131.92 438.343 133.072 435.751 133.904L434.407 131.6C435.559 131.056 436.663 130.4 437.719 129.632C438.807 128.832 439.751 127.856 440.551 126.704C441.383 125.552 442.039 124.192 442.519 122.624C442.999 121.056 443.239 119.184 443.239 117.008V114.416H435.943V111.68H457.495V114.416ZM455.191 119.888H462.775V113.84C462.775 113.072 462.615 112.56 462.295 112.304C461.975 112.016 461.527 111.872 460.951 111.872H459.991V110.096H470.311V133.952H464.599C463.863 133.952 463.367 133.808 463.111 133.52C462.887 133.232 462.775 132.768 462.775 132.128V122.624H455.191V119.888ZM448.711 144.224C448.711 146.816 449.351 148.64 450.631 149.696C451.943 150.752 453.655 151.28 455.767 151.28C456.791 151.28 457.735 151.152 458.599 150.896C459.495 150.64 460.263 150.24 460.903 149.696C461.575 149.152 462.087 148.432 462.439 147.536C462.823 146.64 463.015 145.536 463.015 144.224C463.015 142.88 462.823 141.76 462.439 140.864C462.087 139.936 461.575 139.2 460.903 138.656C460.263 138.08 459.495 137.68 458.599 137.456C457.735 137.2 456.791 137.072 455.767 137.072C454.711 137.072 453.751 137.2 452.887 137.456C452.023 137.68 451.271 138.08 450.631 138.656C450.023 139.2 449.543 139.936 449.191 140.864C448.871 141.76 448.711 142.88 448.711 144.224ZM476.773 126.944C476.773 124.192 477.717 122.016 479.605 120.416C481.493 118.816 484.213 118.016 487.765 118.016C489.813 118.016 491.573 118.304 493.045 118.88C494.549 119.456 495.733 120.272 496.597 121.328H503.557V113.84C503.557 113.072 503.397 112.56 503.077 112.304C502.757 112.016 502.309 111.872 501.733 111.872H500.773V110.096H511.093V140.864H505.381C504.645 140.864 504.149 140.72 503.893 140.432C503.669 140.112 503.557 139.632 503.557 138.992V132.704H496.597C495.701 133.824 494.517 134.704 493.045 135.344C491.573 135.984 489.813 136.304 487.765 136.304C486.005 136.304 484.437 136.08 483.061 135.632C481.717 135.152 480.565 134.496 479.605 133.664C478.677 132.832 477.973 131.84 477.493 130.688C477.013 129.536 476.773 128.288 476.773 126.944ZM489.781 149.312H511.813V152.288H483.685C482.853 152.288 482.325 152.064 482.101 151.616C481.877 151.168 481.765 150.64 481.765 150.032V142.64C481.765 141.808 481.605 141.264 481.285 141.008C480.965 140.752 480.501 140.624 479.893 140.624H479.029V138.848H489.781V149.312ZM475.573 116.432V113.696H484.309V112.4C484.309 111.792 484.149 111.376 483.829 111.152C483.509 110.928 483.077 110.816 482.533 110.816H481.717V109.04H491.893V113.696H499.717V116.432H475.573ZM487.765 120.848C486.645 120.848 485.749 121.296 485.077 122.192C484.405 123.056 484.069 124.64 484.069 126.944C484.069 129.248 484.405 130.912 485.077 131.936C485.749 132.96 486.645 133.472 487.765 133.472C488.853 133.472 489.733 132.96 490.405 131.936C491.077 130.912 491.413 129.248 491.413 126.944C491.413 124.64 491.077 123.056 490.405 122.192C489.733 121.296 488.853 120.848 487.765 120.848ZM498.517 126.944C498.517 128.032 498.373 129.024 498.085 129.92H503.557V124.112H498.133C498.389 124.976 498.517 125.92 498.517 126.944ZM539.442 152.288H532.674C532.194 152.288 531.794 152.144 531.474 151.856C531.186 151.568 531.042 151.168 531.042 150.656V138.992H517.026V136.304H553.554V138.992H539.442V152.288ZM518.274 129.248C522.37 127.616 525.426 125.52 527.442 122.96C529.49 120.4 530.594 117.52 530.754 114.32C530.69 113.776 530.514 113.408 530.226 113.216C529.97 113.024 529.602 112.928 529.122 112.928H528.162V111.2H539.634V113.648C539.73 117.04 540.786 120.08 542.802 122.768C544.818 125.424 547.954 127.536 552.21 129.104L550.914 131.696C549.282 131.248 547.682 130.688 546.114 130.016C544.546 129.312 543.074 128.528 541.698 127.664C540.354 126.768 539.138 125.792 538.05 124.736C536.962 123.68 536.066 122.576 535.362 121.424C534.626 122.576 533.698 123.696 532.578 124.784C531.49 125.872 530.258 126.864 528.882 127.76C527.506 128.656 526.018 129.456 524.418 130.16C522.85 130.864 521.25 131.408 519.618 131.792L518.274 129.248Z" fill="#D800A8"/>


	<!-- Description 시작 -->
	<path class="animate-fade-in-bottom description" d="M337.149 178.552V187H334.557C334.189 187 333.901 186.896 333.693 186.688C333.501 186.48 333.405 186.192 333.405 185.824V172.624C333.405 171.488 332.781 170.92 331.533 170.92V170.152H344.589V173.848H344.133C344.101 173.336 344.013 172.92 343.869 172.6C343.741 172.264 343.549 172.008 343.293 171.832C343.053 171.64 342.757 171.512 342.405 171.448C342.053 171.384 341.653 171.352 341.205 171.352H337.149V177.376H339.933C340.477 177.376 340.885 177.288 341.157 177.112C341.445 176.936 341.589 176.52 341.589 175.864H342.045V180.064H341.589C341.589 179.408 341.445 178.992 341.157 178.816C340.885 178.64 340.477 178.552 339.933 178.552H337.149ZM350.578 187H348.01C347.642 187 347.354 186.904 347.146 186.712C346.954 186.504 346.858 186.232 346.858 185.896V177.088C346.858 176 346.234 175.456 344.986 175.456V174.856H349.546C349.93 174.856 350.186 174.984 350.314 175.24C350.458 175.496 350.546 175.808 350.578 176.176C351.17 175.632 351.746 175.256 352.306 175.048C352.882 174.84 353.53 174.736 354.25 174.736C354.618 174.736 355.058 174.8 355.57 174.928C356.098 175.04 356.722 175.312 357.442 175.744L356.914 176.8C356.434 176.528 355.986 176.32 355.57 176.176C355.17 176.016 354.706 175.936 354.178 175.936C352.738 175.936 351.538 176.512 350.578 177.664V187ZM363.829 186.16C365.013 186.16 365.773 185.736 366.109 184.888C366.189 184.68 366.261 184.48 366.325 184.288C366.389 184.08 366.437 183.84 366.469 183.568C366.517 183.28 366.549 182.936 366.565 182.536C366.597 182.136 366.613 181.64 366.613 181.048C366.613 180.456 366.597 179.968 366.565 179.584C366.549 179.184 366.517 178.848 366.469 178.576C366.437 178.288 366.389 178.04 366.325 177.832C366.261 177.624 366.189 177.416 366.109 177.208C365.773 176.36 365.013 175.936 363.829 175.936C362.501 175.936 361.677 176.456 361.357 177.496C361.309 177.72 361.261 177.928 361.213 178.12C361.181 178.312 361.149 178.536 361.117 178.792C361.101 179.032 361.085 179.336 361.069 179.704C361.053 180.056 361.045 180.504 361.045 181.048C361.045 181.592 361.053 182.048 361.069 182.416C361.085 182.768 361.101 183.072 361.117 183.328C361.149 183.584 361.181 183.808 361.213 184C361.261 184.192 361.309 184.392 361.357 184.6C361.661 185.64 362.485 186.16 363.829 186.16ZM363.829 187.36C361.701 187.36 360.085 186.816 358.981 185.728C357.861 184.624 357.301 183.064 357.301 181.048C357.301 179.048 357.869 177.496 359.005 176.392C360.109 175.288 361.717 174.736 363.829 174.736C365.909 174.736 367.517 175.288 368.653 176.392C369.773 177.496 370.333 179.048 370.333 181.048C370.333 183.08 369.781 184.64 368.677 185.728C367.573 186.816 365.957 187.36 363.829 187.36ZM376.406 187H373.838C373.47 187 373.182 186.904 372.974 186.712C372.782 186.504 372.686 186.232 372.686 185.896V177.088C372.686 176 372.062 175.456 370.814 175.456V174.856H375.374C375.71 174.856 375.958 174.976 376.118 175.216C376.198 175.344 376.246 175.456 376.262 175.552C376.694 175.28 377.15 175.08 377.63 174.952C378.126 174.808 378.582 174.736 378.998 174.736C380.902 174.736 382.342 175.096 383.318 175.816C384.31 176.52 384.806 177.6 384.806 179.056V187H382.214C381.846 187 381.558 186.904 381.35 186.712C381.158 186.504 381.062 186.232 381.062 185.896V180.016C381.062 178.56 380.87 177.52 380.486 176.896C380.102 176.256 379.526 175.936 378.758 175.936C377.942 175.936 377.142 176.216 376.358 176.776C376.374 176.936 376.382 177.088 376.382 177.232C376.398 177.376 376.406 177.52 376.406 177.664V187ZM391.408 184.072C391.408 184.872 391.56 185.424 391.864 185.728C392.168 186.016 392.528 186.16 392.944 186.16C393.312 186.16 393.624 186.08 393.88 185.92C394.136 185.76 394.368 185.544 394.576 185.272L395.416 185.944C395.304 186.184 395.144 186.392 394.936 186.568C394.728 186.744 394.496 186.888 394.24 187C394 187.128 393.744 187.216 393.472 187.264C393.2 187.328 392.944 187.36 392.704 187.36C390.976 187.36 389.704 186.84 388.888 185.8C388.072 184.744 387.664 183.24 387.664 181.288V176.8C387.664 176.048 387.296 175.672 386.56 175.672H385.792V174.736H386.824C387.576 174.736 388.136 174.488 388.504 173.992C388.872 173.48 389.056 172.672 389.056 171.568H391.408V174.736H394.672V175.936H391.408V184.072ZM404.509 180.208C404.493 179.504 404.445 178.92 404.365 178.456C404.285 177.992 404.189 177.608 404.077 177.304C403.869 176.808 403.573 176.456 403.189 176.248C402.821 176.04 402.333 175.936 401.725 175.936C400.541 175.936 399.765 176.344 399.397 177.16C399.221 177.544 399.101 177.984 399.037 178.48C398.973 178.96 398.941 179.536 398.941 180.208H404.509ZM401.725 187.36C399.613 187.36 397.997 186.824 396.877 185.752C396.317 185.208 395.893 184.52 395.605 183.688C395.317 182.856 395.173 181.936 395.173 180.928C395.173 178.992 395.749 177.472 396.901 176.368C398.037 175.28 399.645 174.736 401.725 174.736C403.805 174.736 405.413 175.28 406.549 176.368C407.109 176.896 407.525 177.56 407.797 178.36C408.069 179.144 408.213 180.016 408.229 180.976V181.384H398.941C398.941 182.024 398.957 182.56 398.989 182.992C399.021 183.408 399.061 183.76 399.109 184.048C399.157 184.32 399.205 184.528 399.253 184.672C399.301 184.816 399.341 184.92 399.373 184.984C399.517 185.24 399.677 185.448 399.853 185.608C400.045 185.752 400.245 185.872 400.453 185.968C400.677 186.048 400.909 186.104 401.149 186.136C401.405 186.168 401.653 186.184 401.893 186.184C402.885 186.184 403.781 186.048 404.581 185.776C405.397 185.504 406.165 185.032 406.885 184.36L407.653 185.296C407.173 185.776 406.677 186.152 406.165 186.424C405.653 186.696 405.133 186.896 404.605 187.024C404.093 187.168 403.589 187.256 403.093 187.288C402.613 187.336 402.157 187.36 401.725 187.36ZM414.492 187H411.924C411.556 187 411.268 186.904 411.06 186.712C410.868 186.504 410.772 186.232 410.772 185.896V177.088C410.772 176 410.148 175.456 408.9 175.456V174.856H413.46C413.796 174.856 414.044 174.976 414.204 175.216C414.284 175.344 414.332 175.456 414.348 175.552C414.78 175.28 415.236 175.08 415.716 174.952C416.212 174.808 416.668 174.736 417.084 174.736C418.988 174.736 420.428 175.096 421.404 175.816C422.396 176.52 422.892 177.6 422.892 179.056V187H420.3C419.932 187 419.644 186.904 419.436 186.712C419.244 186.504 419.148 186.232 419.148 185.896V180.016C419.148 178.56 418.956 177.52 418.572 176.896C418.188 176.256 417.612 175.936 416.844 175.936C416.028 175.936 415.228 176.216 414.444 176.776C414.46 176.936 414.468 177.088 414.468 177.232C414.484 177.376 414.492 177.52 414.492 177.664V187ZM436.732 184.768C436.732 185.872 437.348 186.424 438.58 186.424V187H434.068C433.844 187 433.644 186.944 433.468 186.832C433.292 186.72 433.172 186.528 433.108 186.256C432.804 186.624 432.38 186.896 431.836 187.072C431.308 187.264 430.844 187.36 430.444 187.36C429.532 187.36 428.716 187.192 427.996 186.856C427.276 186.504 426.66 186.032 426.148 185.44C425.652 184.848 425.268 184.16 424.996 183.376C424.74 182.592 424.612 181.768 424.612 180.904C424.612 178.984 425.156 177.48 426.244 176.392C427.348 175.288 428.82 174.736 430.66 174.736C431.428 174.736 432.212 174.992 433.012 175.504V171.496C433.012 170.408 432.388 169.864 431.14 169.864V169.264H435.796C436.42 169.264 436.732 169.888 436.732 171.136V184.768ZM428.356 180.904C428.356 181.56 428.356 182.12 428.356 182.584C428.372 183.032 428.388 183.408 428.404 183.712C428.436 184 428.468 184.232 428.5 184.408C428.532 184.584 428.564 184.72 428.596 184.816C428.98 185.712 429.668 186.16 430.66 186.16C431.076 186.16 431.5 186.056 431.932 185.848C432.364 185.624 432.724 185.352 433.012 185.032V176.752C432.228 176.208 431.444 175.936 430.66 175.936C429.652 175.936 428.964 176.384 428.596 177.28C428.564 177.408 428.532 177.552 428.5 177.712C428.468 177.856 428.436 178.064 428.404 178.336C428.388 178.592 428.372 178.928 428.356 179.344C428.356 179.744 428.356 180.264 428.356 180.904ZM453.364 185.8C454.356 185.8 455.124 185.56 455.668 185.08C456.228 184.6 456.636 184 456.892 183.28C457.164 182.544 457.324 181.76 457.372 180.928C457.436 180.08 457.468 179.296 457.468 178.576C457.468 177.792 457.436 176.976 457.372 176.128C457.308 175.28 457.14 174.504 456.868 173.8C456.596 173.096 456.188 172.512 455.644 172.048C455.116 171.584 454.372 171.352 453.412 171.352H451.852V185.8H453.364ZM449.284 187C448.916 187 448.628 186.896 448.42 186.688C448.228 186.464 448.132 186.176 448.132 185.824V172.6C448.132 171.48 447.508 170.92 446.26 170.92V170.152H453.964C454.972 170.152 455.932 170.352 456.844 170.752C457.756 171.152 458.548 171.76 459.22 172.576C459.876 173.392 460.372 174.304 460.708 175.312C461.044 176.304 461.212 177.392 461.212 178.576C461.212 180.944 460.548 182.936 459.22 184.552C458.548 185.368 457.756 185.984 456.844 186.4C455.932 186.8 454.972 187 453.964 187H449.284ZM471.775 180.208C471.759 179.504 471.711 178.92 471.631 178.456C471.551 177.992 471.455 177.608 471.343 177.304C471.135 176.808 470.839 176.456 470.455 176.248C470.087 176.04 469.599 175.936 468.991 175.936C467.807 175.936 467.031 176.344 466.663 177.16C466.487 177.544 466.367 177.984 466.303 178.48C466.239 178.96 466.207 179.536 466.207 180.208H471.775ZM468.991 187.36C466.879 187.36 465.263 186.824 464.143 185.752C463.583 185.208 463.159 184.52 462.871 183.688C462.583 182.856 462.439 181.936 462.439 180.928C462.439 178.992 463.015 177.472 464.167 176.368C465.303 175.28 466.911 174.736 468.991 174.736C471.071 174.736 472.679 175.28 473.815 176.368C474.375 176.896 474.791 177.56 475.063 178.36C475.335 179.144 475.479 180.016 475.495 180.976V181.384H466.207C466.207 182.024 466.223 182.56 466.255 182.992C466.287 183.408 466.327 183.76 466.375 184.048C466.423 184.32 466.471 184.528 466.519 184.672C466.567 184.816 466.607 184.92 466.639 184.984C466.783 185.24 466.943 185.448 467.119 185.608C467.311 185.752 467.511 185.872 467.719 185.968C467.943 186.048 468.175 186.104 468.415 186.136C468.671 186.168 468.919 186.184 469.159 186.184C470.151 186.184 471.047 186.048 471.847 185.776C472.663 185.504 473.431 185.032 474.151 184.36L474.919 185.296C474.439 185.776 473.943 186.152 473.431 186.424C472.919 186.696 472.399 186.896 471.871 187.024C471.359 187.168 470.855 187.256 470.359 187.288C469.879 187.336 469.423 187.36 468.991 187.36ZM483.672 183.424L486.264 176.944C486.328 176.8 486.368 176.664 486.384 176.536C486.416 176.392 486.432 176.272 486.432 176.176C486.432 176.112 486.424 176.04 486.408 175.96C486.408 175.864 486.376 175.784 486.312 175.72C486.264 175.64 486.176 175.576 486.048 175.528C485.92 175.48 485.744 175.456 485.52 175.456V174.856H489.288V175.456C488.952 175.472 488.624 175.552 488.304 175.696C488 175.824 487.744 176.144 487.536 176.656L484.728 183.568L483.408 187H482.496C482.064 187 481.712 186.84 481.44 186.52C481.184 186.2 480.952 185.792 480.744 185.296L477.432 177.04C477.272 176.656 477.112 176.36 476.952 176.152C476.808 175.928 476.672 175.776 476.544 175.696C476.432 175.616 476.264 175.56 476.04 175.528C475.832 175.48 475.592 175.456 475.32 175.456V174.856H479.76C480.112 174.856 480.384 175 480.576 175.288C480.768 175.576 480.968 176 481.176 176.56L483.672 183.424ZM498.329 180.208C498.313 179.504 498.265 178.92 498.185 178.456C498.105 177.992 498.009 177.608 497.897 177.304C497.689 176.808 497.393 176.456 497.009 176.248C496.641 176.04 496.153 175.936 495.545 175.936C494.361 175.936 493.585 176.344 493.217 177.16C493.041 177.544 492.921 177.984 492.857 178.48C492.793 178.96 492.761 179.536 492.761 180.208H498.329ZM495.545 187.36C493.433 187.36 491.817 186.824 490.697 185.752C490.137 185.208 489.713 184.52 489.425 183.688C489.137 182.856 488.993 181.936 488.993 180.928C488.993 178.992 489.569 177.472 490.721 176.368C491.857 175.28 493.465 174.736 495.545 174.736C497.625 174.736 499.233 175.28 500.369 176.368C500.929 176.896 501.345 177.56 501.617 178.36C501.889 179.144 502.033 180.016 502.049 180.976V181.384H492.761C492.761 182.024 492.777 182.56 492.809 182.992C492.841 183.408 492.881 183.76 492.929 184.048C492.977 184.32 493.025 184.528 493.073 184.672C493.121 184.816 493.161 184.92 493.193 184.984C493.337 185.24 493.497 185.448 493.673 185.608C493.865 185.752 494.065 185.872 494.273 185.968C494.497 186.048 494.729 186.104 494.969 186.136C495.225 186.168 495.473 186.184 495.713 186.184C496.705 186.184 497.601 186.048 498.401 185.776C499.217 185.504 499.985 185.032 500.705 184.36L501.473 185.296C500.993 185.776 500.497 186.152 499.985 186.424C499.473 186.696 498.953 186.896 498.425 187.024C497.913 187.168 497.409 187.256 496.913 187.288C496.433 187.336 495.977 187.36 495.545 187.36ZM507.797 187H505.229C504.861 187 504.573 186.904 504.365 186.712C504.173 186.504 504.077 186.232 504.077 185.896V171.496C504.077 170.408 503.453 169.864 502.205 169.864V169.264H506.765C507.085 169.264 507.333 169.344 507.509 169.504C507.701 169.664 507.797 170.048 507.797 170.656V187ZM516.408 186.16C517.592 186.16 518.352 185.736 518.688 184.888C518.768 184.68 518.84 184.48 518.904 184.288C518.968 184.08 519.016 183.84 519.048 183.568C519.096 183.28 519.128 182.936 519.144 182.536C519.176 182.136 519.192 181.64 519.192 181.048C519.192 180.456 519.176 179.968 519.144 179.584C519.128 179.184 519.096 178.848 519.048 178.576C519.016 178.288 518.968 178.04 518.904 177.832C518.84 177.624 518.768 177.416 518.688 177.208C518.352 176.36 517.592 175.936 516.408 175.936C515.08 175.936 514.256 176.456 513.936 177.496C513.888 177.72 513.84 177.928 513.792 178.12C513.76 178.312 513.728 178.536 513.696 178.792C513.68 179.032 513.664 179.336 513.648 179.704C513.632 180.056 513.624 180.504 513.624 181.048C513.624 181.592 513.632 182.048 513.648 182.416C513.664 182.768 513.68 183.072 513.696 183.328C513.728 183.584 513.76 183.808 513.792 184C513.84 184.192 513.888 184.392 513.936 184.6C514.24 185.64 515.064 186.16 516.408 186.16ZM516.408 187.36C514.28 187.36 512.664 186.816 511.56 185.728C510.44 184.624 509.88 183.064 509.88 181.048C509.88 179.048 510.448 177.496 511.584 176.392C512.688 175.288 514.296 174.736 516.408 174.736C518.488 174.736 520.096 175.288 521.232 176.392C522.352 177.496 522.912 179.048 522.912 181.048C522.912 183.08 522.36 184.64 521.256 185.728C520.152 186.816 518.536 187.36 516.408 187.36ZM533.782 180.928C533.782 180.272 533.774 179.736 533.758 179.32C533.758 178.888 533.742 178.544 533.71 178.288C533.694 178.016 533.67 177.808 533.638 177.664C533.606 177.504 533.566 177.376 533.518 177.28C533.134 176.384 532.454 175.936 531.478 175.936C530.694 175.936 529.902 176.216 529.102 176.776C529.118 176.936 529.126 177.088 529.126 177.232C529.126 177.376 529.126 177.52 529.126 177.664V185.344C529.91 185.888 530.694 186.16 531.478 186.16C532.454 186.16 533.134 185.712 533.518 184.816C533.566 184.704 533.606 184.56 533.638 184.384C533.67 184.192 533.694 183.952 533.71 183.664C533.742 183.36 533.758 182.992 533.758 182.56C533.774 182.112 533.782 181.568 533.782 180.928ZM525.406 177.088C525.406 176 524.782 175.456 523.534 175.456V174.856H528.07C528.182 174.856 528.302 174.872 528.43 174.904C528.574 174.936 528.686 175.008 528.766 175.12C528.846 175.2 528.902 175.288 528.934 175.384C528.966 175.464 528.99 175.52 529.006 175.552C529.326 175.312 529.718 175.12 530.182 174.976C530.646 174.816 531.078 174.736 531.478 174.736C533.302 174.736 534.766 175.288 535.87 176.392C536.414 176.952 536.822 177.608 537.094 178.36C537.382 179.096 537.526 179.952 537.526 180.928C537.526 181.904 537.382 182.808 537.094 183.64C536.822 184.472 536.414 185.168 535.87 185.728C534.782 186.816 533.318 187.36 531.478 187.36C530.71 187.36 529.926 187.104 529.126 186.592V191.656H526.558C525.79 191.656 525.406 191.288 525.406 190.552V177.088ZM548.228 180.208C548.212 179.504 548.164 178.92 548.084 178.456C548.004 177.992 547.908 177.608 547.796 177.304C547.588 176.808 547.292 176.456 546.908 176.248C546.54 176.04 546.052 175.936 545.444 175.936C544.26 175.936 543.484 176.344 543.116 177.16C542.94 177.544 542.82 177.984 542.756 178.48C542.692 178.96 542.66 179.536 542.66 180.208H548.228ZM545.444 187.36C543.332 187.36 541.716 186.824 540.596 185.752C540.036 185.208 539.612 184.52 539.324 183.688C539.036 182.856 538.892 181.936 538.892 180.928C538.892 178.992 539.468 177.472 540.62 176.368C541.756 175.28 543.364 174.736 545.444 174.736C547.524 174.736 549.132 175.28 550.268 176.368C550.828 176.896 551.244 177.56 551.516 178.36C551.788 179.144 551.932 180.016 551.948 180.976V181.384H542.66C542.66 182.024 542.676 182.56 542.708 182.992C542.74 183.408 542.78 183.76 542.828 184.048C542.876 184.32 542.924 184.528 542.972 184.672C543.02 184.816 543.06 184.92 543.092 184.984C543.236 185.24 543.396 185.448 543.572 185.608C543.764 185.752 543.964 185.872 544.172 185.968C544.396 186.048 544.628 186.104 544.868 186.136C545.124 186.168 545.372 186.184 545.612 186.184C546.604 186.184 547.5 186.048 548.3 185.776C549.116 185.504 549.884 185.032 550.604 184.36L551.372 185.296C550.892 185.776 550.396 186.152 549.884 186.424C549.372 186.696 548.852 186.896 548.324 187.024C547.812 187.168 547.308 187.256 546.812 187.288C546.332 187.336 545.876 187.36 545.444 187.36ZM557.93 187H555.362C554.994 187 554.706 186.904 554.498 186.712C554.306 186.504 554.21 186.232 554.21 185.896V177.088C554.21 176 553.586 175.456 552.338 175.456V174.856H556.898C557.282 174.856 557.538 174.984 557.666 175.24C557.81 175.496 557.898 175.808 557.93 176.176C558.522 175.632 559.098 175.256 559.658 175.048C560.234 174.84 560.882 174.736 561.602 174.736C561.97 174.736 562.41 174.8 562.922 174.928C563.45 175.04 564.074 175.312 564.794 175.744L564.266 176.8C563.786 176.528 563.338 176.32 562.922 176.176C562.522 176.016 562.058 175.936 561.53 175.936C560.09 175.936 558.89 176.512 557.93 177.664V187Z" fill="#8C8C8C"/>
	<!-- Description 끝 -->

	<!-- 블로그 텍스트 시작 -->
	<path class="additional__indicator animate-fade-in" d="M386.791 207.416C386.791 206.659 386.375 206.28 385.543 206.28V205.768H389.575C392.689 205.768 394.247 206.525 394.247 208.04C394.247 209.363 393.26 210.168 391.287 210.456C391.735 210.477 392.204 210.557 392.695 210.696C393.196 210.824 393.655 211.021 394.071 211.288C394.487 211.544 394.828 211.875 395.095 212.28C395.372 212.675 395.511 213.149 395.511 213.704C395.511 214.355 395.356 214.893 395.047 215.32C394.737 215.736 394.348 216.072 393.879 216.328C393.42 216.573 392.913 216.749 392.359 216.856C391.815 216.952 391.308 217 390.839 217H387.559C387.313 217 387.121 216.931 386.983 216.792C386.855 216.653 386.791 216.461 386.791 216.216V207.416ZM389.271 216.2H390.679C391.393 216.2 391.959 215.976 392.375 215.528C392.801 215.069 393.015 214.461 393.015 213.704C393.015 212.733 392.801 212.019 392.375 211.56C391.948 211.091 391.223 210.856 390.199 210.856H389.271V216.2ZM389.271 206.568V210.056H389.575C390.375 210.056 390.961 209.907 391.335 209.608C391.708 209.309 391.884 208.797 391.863 208.072C391.841 207.475 391.639 207.075 391.255 206.872C390.871 206.669 390.311 206.568 389.575 206.568H389.271ZM399.38 217H397.668C397.423 217 397.231 216.936 397.092 216.808C396.964 216.669 396.9 216.488 396.9 216.264V206.664C396.9 205.939 396.484 205.576 395.652 205.576V205.176H398.692C398.906 205.176 399.071 205.229 399.188 205.336C399.316 205.443 399.38 205.699 399.38 206.104V217ZM405.121 216.44C405.91 216.44 406.417 216.157 406.641 215.592C406.694 215.453 406.742 215.32 406.785 215.192C406.827 215.053 406.859 214.893 406.881 214.712C406.913 214.52 406.934 214.291 406.945 214.024C406.966 213.757 406.977 213.427 406.977 213.032C406.977 212.637 406.966 212.312 406.945 212.056C406.934 211.789 406.913 211.565 406.881 211.384C406.859 211.192 406.827 211.027 406.785 210.888C406.742 210.749 406.694 210.611 406.641 210.472C406.417 209.907 405.91 209.624 405.121 209.624C404.235 209.624 403.686 209.971 403.473 210.664C403.441 210.813 403.409 210.952 403.377 211.08C403.355 211.208 403.334 211.357 403.313 211.528C403.302 211.688 403.291 211.891 403.281 212.136C403.27 212.371 403.265 212.669 403.265 213.032C403.265 213.395 403.27 213.699 403.281 213.944C403.291 214.179 403.302 214.381 403.313 214.552C403.334 214.723 403.355 214.872 403.377 215C403.409 215.128 403.441 215.261 403.473 215.4C403.675 216.093 404.225 216.44 405.121 216.44ZM405.121 217.24C403.702 217.24 402.625 216.877 401.889 216.152C401.142 215.416 400.769 214.376 400.769 213.032C400.769 211.699 401.147 210.664 401.905 209.928C402.641 209.192 403.713 208.824 405.121 208.824C406.507 208.824 407.579 209.192 408.337 209.928C409.083 210.664 409.457 211.699 409.457 213.032C409.457 214.387 409.089 215.427 408.353 216.152C407.617 216.877 406.539 217.24 405.121 217.24ZM412.826 212.952C412.826 213.379 412.826 213.741 412.826 214.04C412.836 214.328 412.847 214.573 412.858 214.776C412.879 214.968 412.9 215.128 412.922 215.256C412.943 215.373 412.964 215.469 412.986 215.544C413.231 216.141 413.69 216.44 414.362 216.44C414.884 216.44 415.407 216.259 415.93 215.896V210.776C415.93 210.68 415.93 210.584 415.93 210.488C415.94 210.392 415.951 210.291 415.962 210.184C415.706 209.992 415.45 209.853 415.194 209.768C414.948 209.672 414.671 209.624 414.362 209.624C413.7 209.624 413.242 209.923 412.986 210.52C412.964 210.584 412.943 210.669 412.922 210.776C412.9 210.872 412.879 211.011 412.858 211.192C412.847 211.363 412.836 211.592 412.826 211.88C412.826 212.157 412.826 212.515 412.826 212.952ZM415.93 216.728C415.396 217.069 414.874 217.24 414.362 217.24C413.156 217.24 412.175 216.872 411.418 216.136C411.055 215.763 410.778 215.304 410.586 214.76C410.404 214.205 410.314 213.603 410.314 212.952C410.314 211.672 410.687 210.669 411.434 209.944C412.17 209.197 413.146 208.824 414.362 208.824C414.628 208.824 414.9 208.867 415.178 208.952C415.455 209.037 415.727 209.176 415.994 209.368C416.047 209.251 416.132 209.144 416.25 209.048C416.367 208.952 416.495 208.904 416.634 208.904H419.642V209.304C418.82 209.304 418.41 209.667 418.41 210.392V216.008C418.41 217.309 418.01 218.317 417.21 219.032C416.399 219.747 415.295 220.104 413.898 220.104C413.45 220.104 413.012 220.051 412.586 219.944C412.17 219.837 411.754 219.661 411.338 219.416L411.69 218.648C412.084 218.872 412.442 219.037 412.762 219.144C413.082 219.261 413.46 219.32 413.898 219.32C414.602 219.32 415.108 219.128 415.418 218.744C415.738 218.36 415.908 217.848 415.93 217.208V216.728ZM420.507 216.056C420.507 215.715 420.624 215.421 420.859 215.176C421.104 214.931 421.397 214.808 421.739 214.808C422.08 214.808 422.373 214.931 422.619 215.176C422.864 215.421 422.987 215.715 422.987 216.056C422.987 216.397 422.864 216.691 422.619 216.936C422.373 217.181 422.08 217.304 421.739 217.304C421.397 217.304 421.104 217.181 420.859 216.936C420.624 216.691 420.507 216.397 420.507 216.056Z" fill="black"/>
	<rect class="additional__indicator animate-fade-in animate-ping" x="376" y="210" width="5" height="5" rx="2.5" fill="#00BC40"/>
	<rect class="additional__indicator animate-fade-in" x="376" y="210" width="5" height="5" rx="2.5" fill="#00BC40"/>
<!-- 블로그 텍스트 끝 -->

<!-- 포트폴리오 텍스트 시작 -->
	<g class="additional__indicator animate-fade-in">
		<path d="M451.982 206.568V212.776H453.246C453.736 212.776 454.142 212.696 454.462 212.536C454.782 212.376 455.032 212.163 455.214 211.896C455.406 211.619 455.539 211.299 455.614 210.936C455.688 210.563 455.726 210.173 455.726 209.768C455.726 209.32 455.688 208.904 455.614 208.52C455.55 208.125 455.427 207.784 455.246 207.496C455.064 207.208 454.814 206.984 454.494 206.824C454.174 206.653 453.758 206.568 453.246 206.568H451.982ZM451.982 213.576V217H450.27C450.024 217 449.832 216.936 449.694 216.808C449.566 216.669 449.502 216.488 449.502 216.264V207.288C449.502 206.979 449.395 206.733 449.182 206.552C448.968 206.371 448.659 206.28 448.254 206.28V205.768H453.55C454.232 205.768 454.846 205.837 455.39 205.976C455.944 206.115 456.446 206.36 456.894 206.712C457.331 207.075 457.662 207.517 457.886 208.04C458.11 208.563 458.222 209.091 458.222 209.624C458.222 210.147 458.11 210.659 457.886 211.16C457.662 211.651 457.331 212.077 456.894 212.44C456.446 212.803 455.944 213.085 455.39 213.288C454.846 213.48 454.232 213.576 453.55 213.576H451.982ZM463.347 216.44C464.137 216.44 464.643 216.157 464.867 215.592C464.921 215.453 464.969 215.32 465.011 215.192C465.054 215.053 465.086 214.893 465.107 214.712C465.139 214.52 465.161 214.291 465.171 214.024C465.193 213.757 465.203 213.427 465.203 213.032C465.203 212.637 465.193 212.312 465.171 212.056C465.161 211.789 465.139 211.565 465.107 211.384C465.086 211.192 465.054 211.027 465.011 210.888C464.969 210.749 464.921 210.611 464.867 210.472C464.643 209.907 464.137 209.624 463.347 209.624C462.462 209.624 461.913 209.971 461.699 210.664C461.667 210.813 461.635 210.952 461.603 211.08C461.582 211.208 461.561 211.357 461.539 211.528C461.529 211.688 461.518 211.891 461.507 212.136C461.497 212.371 461.491 212.669 461.491 213.032C461.491 213.395 461.497 213.699 461.507 213.944C461.518 214.179 461.529 214.381 461.539 214.552C461.561 214.723 461.582 214.872 461.603 215C461.635 215.128 461.667 215.261 461.699 215.4C461.902 216.093 462.451 216.44 463.347 216.44ZM463.347 217.24C461.929 217.24 460.851 216.877 460.115 216.152C459.369 215.416 458.995 214.376 458.995 213.032C458.995 211.699 459.374 210.664 460.131 209.928C460.867 209.192 461.939 208.824 463.347 208.824C464.734 208.824 465.806 209.192 466.563 209.928C467.31 210.664 467.683 211.699 467.683 213.032C467.683 214.387 467.315 215.427 466.579 216.152C465.843 216.877 464.766 217.24 463.347 217.24ZM471.732 217H470.02C469.774 217 469.582 216.936 469.444 216.808C469.316 216.669 469.252 216.488 469.252 216.264V210.392C469.252 209.667 468.836 209.304 468.004 209.304V208.904H471.044C471.3 208.904 471.47 208.989 471.556 209.16C471.652 209.331 471.71 209.539 471.732 209.784C472.126 209.421 472.51 209.171 472.884 209.032C473.268 208.893 473.7 208.824 474.18 208.824C474.425 208.824 474.718 208.867 475.06 208.952C475.412 209.027 475.828 209.208 476.308 209.496L475.956 210.2C475.636 210.019 475.337 209.88 475.06 209.784C474.793 209.677 474.484 209.624 474.132 209.624C473.172 209.624 472.372 210.008 471.732 210.776V217ZM480.186 215.048C480.186 215.581 480.287 215.949 480.49 216.152C480.693 216.344 480.933 216.44 481.21 216.44C481.455 216.44 481.663 216.387 481.834 216.28C482.005 216.173 482.159 216.029 482.298 215.848L482.858 216.296C482.783 216.456 482.677 216.595 482.538 216.712C482.399 216.829 482.245 216.925 482.074 217C481.914 217.085 481.743 217.144 481.562 217.176C481.381 217.219 481.21 217.24 481.05 217.24C479.898 217.24 479.05 216.893 478.506 216.2C477.962 215.496 477.69 214.493 477.69 213.192V210.2C477.69 209.699 477.445 209.448 476.954 209.448H476.442V208.824H477.13C477.631 208.824 478.005 208.659 478.25 208.328C478.495 207.987 478.618 207.448 478.618 206.712H480.186V208.824H482.362V209.624H480.186V215.048ZM486.689 209.624V217H484.977C484.731 217 484.539 216.936 484.401 216.808C484.273 216.669 484.209 216.488 484.209 216.264V209.624H482.961V208.824H484.209C484.23 207.576 484.534 206.659 485.121 206.072C485.707 205.475 486.587 205.176 487.761 205.176C488.134 205.176 488.475 205.256 488.785 205.416C489.094 205.565 489.323 205.763 489.473 206.008L488.993 206.488C488.747 206.147 488.379 205.976 487.889 205.976C487.505 205.976 487.206 206.109 486.993 206.376C486.79 206.632 486.689 207.021 486.689 207.544V208.824H488.097V209.624H486.689ZM492.754 216.44C493.543 216.44 494.05 216.157 494.274 215.592C494.327 215.453 494.375 215.32 494.418 215.192C494.46 215.053 494.492 214.893 494.514 214.712C494.546 214.52 494.567 214.291 494.578 214.024C494.599 213.757 494.61 213.427 494.61 213.032C494.61 212.637 494.599 212.312 494.578 212.056C494.567 211.789 494.546 211.565 494.514 211.384C494.492 211.192 494.46 211.027 494.418 210.888C494.375 210.749 494.327 210.611 494.274 210.472C494.05 209.907 493.543 209.624 492.754 209.624C491.868 209.624 491.319 209.971 491.106 210.664C491.074 210.813 491.042 210.952 491.01 211.08C490.988 211.208 490.967 211.357 490.946 211.528C490.935 211.688 490.924 211.891 490.914 212.136C490.903 212.371 490.898 212.669 490.898 213.032C490.898 213.395 490.903 213.699 490.914 213.944C490.924 214.179 490.935 214.381 490.946 214.552C490.967 214.723 490.988 214.872 491.01 215C491.042 215.128 491.074 215.261 491.106 215.4C491.308 216.093 491.858 216.44 492.754 216.44ZM492.754 217.24C491.335 217.24 490.258 216.877 489.522 216.152C488.775 215.416 488.402 214.376 488.402 213.032C488.402 211.699 488.78 210.664 489.538 209.928C490.274 209.192 491.346 208.824 492.754 208.824C494.14 208.824 495.212 209.192 495.97 209.928C496.716 210.664 497.09 211.699 497.09 213.032C497.09 214.387 496.722 215.427 495.986 216.152C495.25 216.877 494.172 217.24 492.754 217.24ZM500.982 217H499.27C499.024 217 498.832 216.936 498.694 216.808C498.566 216.669 498.502 216.488 498.502 216.264V206.664C498.502 205.939 498.086 205.576 497.254 205.576V205.176H500.294C500.507 205.176 500.672 205.229 500.79 205.336C500.918 205.443 500.982 205.699 500.982 206.104V217ZM505.954 217H504.242C503.997 217 503.805 216.936 503.666 216.808C503.538 216.669 503.474 216.488 503.474 216.264V210.392C503.474 209.667 503.058 209.304 502.226 209.304V208.904H505.202C505.416 208.904 505.592 208.957 505.73 209.064C505.88 209.171 505.954 209.432 505.954 209.848V217ZM503.826 207.304C503.581 207.048 503.458 206.755 503.458 206.424C503.458 206.083 503.581 205.789 503.826 205.544C504.072 205.299 504.365 205.176 504.706 205.176C505.048 205.176 505.341 205.299 505.586 205.544C505.832 205.789 505.954 206.083 505.954 206.424C505.954 206.755 505.832 207.048 505.586 207.304C505.341 207.549 505.048 207.672 504.706 207.672C504.365 207.672 504.072 207.549 503.826 207.304ZM511.363 216.44C512.152 216.44 512.659 216.157 512.883 215.592C512.936 215.453 512.984 215.32 513.027 215.192C513.07 215.053 513.102 214.893 513.123 214.712C513.155 214.52 513.176 214.291 513.187 214.024C513.208 213.757 513.219 213.427 513.219 213.032C513.219 212.637 513.208 212.312 513.187 212.056C513.176 211.789 513.155 211.565 513.123 211.384C513.102 211.192 513.07 211.027 513.027 210.888C512.984 210.749 512.936 210.611 512.883 210.472C512.659 209.907 512.152 209.624 511.363 209.624C510.478 209.624 509.928 209.971 509.715 210.664C509.683 210.813 509.651 210.952 509.619 211.08C509.598 211.208 509.576 211.357 509.555 211.528C509.544 211.688 509.534 211.891 509.523 212.136C509.512 212.371 509.507 212.669 509.507 213.032C509.507 213.395 509.512 213.699 509.523 213.944C509.534 214.179 509.544 214.381 509.555 214.552C509.576 214.723 509.598 214.872 509.619 215C509.651 215.128 509.683 215.261 509.715 215.4C509.918 216.093 510.467 216.44 511.363 216.44ZM511.363 217.24C509.944 217.24 508.867 216.877 508.131 216.152C507.384 215.416 507.011 214.376 507.011 213.032C507.011 211.699 507.39 210.664 508.147 209.928C508.883 209.192 509.955 208.824 511.363 208.824C512.75 208.824 513.822 209.192 514.579 209.928C515.326 210.664 515.699 211.699 515.699 213.032C515.699 214.387 515.331 215.427 514.595 216.152C513.859 216.877 512.782 217.24 511.363 217.24ZM516.796 216.056C516.796 215.715 516.913 215.421 517.148 215.176C517.393 214.931 517.687 214.808 518.028 214.808C518.369 214.808 518.663 214.931 518.908 215.176C519.153 215.421 519.276 215.715 519.276 216.056C519.276 216.397 519.153 216.691 518.908 216.936C518.663 217.181 518.369 217.304 518.028 217.304C517.687 217.304 517.393 217.181 517.148 216.936C516.913 216.691 516.796 216.397 516.796 216.056Z" fill="black"/>
		<rect class="animate-ping" x="439" y="210" width="5" height="5" rx="2.5" fill="#00BC40"/>
		<rect x="439" y="210" width="5" height="5" rx="2.5" fill="#00BC40"/>
	</g>
<!-- 포트폴리오 텍스트 끝 -->

</svg>
